<?xml version="1.0" encoding="utf-8"?>
<!-- Generator: Adobe Illustrator 23.0.2, SVG Export Plug-In . SVG Version: 6.00 Build 0)  -->
<svg version="1.1" id="Layer_1" xmlns="http://www.w3.org/2000/svg" xmlns:xlink="http://www.w3.org/1999/xlink" x="0px" y="0px"
	 viewBox="0 0 300 300" style="enable-background:new 0 0 300 300;" xml:space="preserve">
<style type="text/css">
	.st0{fill:#EFBF8F;stroke:#CC6600;stroke-miterlimit:10;}
	.st1{fill:#94560F;}
	.st2{fill:#EFA873;}
	.st3{fill:#EFBF8F;stroke:#94560F;stroke-miterlimit:10;}
	.st4{fill:#FBD4AB;}
	.st5{fill:none;}
	.st6{fill:#FFF4E6;}
	.st7{fill:#DDAC7A;}
	.st8{fill:#F7E2CB;}
	.st9{fill:#FFF9F3;}
	.st10{fill:#EFBF8F;}
	.st11{fill:#F6AB85;}
	.st12{fill:#D87B1E;}
	.st13{fill:#E3872F;}
	.st14{fill:#C66A18;}
	.st15{fill:#FBC89A;}
	.st16{fill:#5E3700;}
	.st17{fill:#FFFFFF;}
	.st18{fill:#AD1E1E;}
	.st19{fill:#CC1F1F;}
	.st20{fill:#F68D71;}
	.st21{fill:#F4A894;}
	.st22{fill:#E2E0DC;}
</style>
<g id="leg">
	<g>
		<g>
			<g>
				<g>
					<path class="st0" d="M181.2,273.6c-1-0.3-1.2-1-1.9-2.1s-6.3-11-8.3-13.7c-2-2.7-1.9-10.3-1.8-13.5c0.1-3.2-0.3-29-1-33.2
						s1.5-15.6,0.6-23.8c-0.9-8.3-19.3-10.5-16.5,5.8c0,0,1.7,10.3,2.5,13.2c1.1,4.2-1.1,11.3,1.6,22.3c2.7,11,5.5,24.1,4.1,28.2
						c-1.4,4.1-1.1,6.5,2.2,10.7s3.6,7.7,6.2,9.8c2.6,2.1,3.7,2.8,5.2,2.2c0.2-0.1,0.5-0.2,0.7-0.4c0,0,1.3,0.5,2.4-0.4
						c0.1-0.1,0.2-0.2,0.3-0.3c0,0,1.4,0.7,2.1-0.7c0,0,1.2,0.2,1.6-1c0,0,1.2,0.3,1.6-0.8C183,274.8,182.2,273.9,181.2,273.6z"/>
					<path class="st1" d="M181.4,273.3c-1.4-0.7-2.2-2.5-2.9-3.8c-1.1-1.9-2.2-3.8-3.3-5.7c-1-1.7-2.1-3.5-3.2-5.1
						c-1.4-2.1-2-4.1-2.3-6.6c-0.4-3.4-0.2-6.8-0.2-10.3c0-3.7-0.1-7.3-0.2-11c-0.1-7-0.5-14-1-21c-0.4-5.4,0.7-10.9,0.9-16.2
						c0.1-3.5,0.5-7.6-2.1-10.3c-3.5-3.6-10.2-3.6-13.4,0.3c-2,2.5-2.2,6.1-1.7,9.1c0.5,3.3,1.1,6.5,1.7,9.8c0.3,1.6,0.7,3.2,1,4.8
						c0.4,2.1,0.1,4.3,0.1,6.4c-0.2,6,0.5,11.7,1.9,17.6c1.5,6.4,3,12.8,3.7,19.3c0.2,2,0.5,4.3-0.2,6.3c-0.6,2.1-1.1,3.9-0.6,6.1
						c0.6,2.7,2.7,4.8,4.2,7c1.4,2.1,2.2,4.5,3.7,6.6c1,1.4,3.1,3.3,4.8,3.5c0.5,0.1,1.2,0.1,1.7-0.1c0.9-0.5,1,0,1.9-0.3
						c0.1,0,1.5-0.8,1.3-0.8c0.5,0.2,0.9,0.1,1.4,0c0,0,0.8-0.7,0.7-0.8c0.3,0,0.9,0,1.1-0.3c0.3-0.3,0.5-0.7,0.8-0.7
						c0.5,0,0.9-0.2,1.2-0.5C183.6,275.1,182.6,273.9,181.4,273.3c-0.3-0.1-0.6,0.5-0.4,0.6c1,0.5,1.7,2.6,0.2,2.4
						c-0.1,0-0.3,0.1-0.3,0.2c-0.4,0.6-0.8,0.8-1.3,0.8c-0.1,0-0.2,0.1-0.3,0.2c-0.5,0.7-1.1,0.8-1.7,0.5c-0.1,0-0.2,0-0.3,0.1
						c-1.9,2.1-1.5,0-2.5,0.6c-1.5,0.9-2.5,0.5-3.9-0.4c-2.6-1.7-3.9-3.9-5.2-6.6c-1.5-2.9-3.8-5.3-5.1-8.3
						c-1.2-2.7-0.1-5.1,0.4-7.8c0.8-4.5-0.5-9.6-1.4-14c-1.3-6.9-3.5-13.7-4.2-20.6c-0.4-4.6,0.4-9.3-0.2-13.9
						c-0.4-3.6-1.5-7.2-2.1-10.8c-0.6-3.5-1.5-7.2-0.2-10.7c1.3-3.4,4.9-4.8,8.3-4.4c2.9,0.3,5.8,2,7,4.7c0.9,2.1,0.6,4.9,0.5,7.1
						c0,3.2-0.3,6.3-0.6,9.5c-0.6,7.2,0.3,14.4,0.5,21.6c0.2,6.9,0.5,13.8,0.3,20.6c-0.1,4.1-0.4,9.2,1.6,12.9
						c1.9,3.5,4.3,6.9,6.3,10.3c1,1.8,2.2,5,4.2,5.8C181.3,274,181.6,273.4,181.4,273.3z"/>
				</g>
				<path class="st2" d="M167.4,212.8c-0.5,1.1-1.3,2.1-2.6,1.9c-1.3-0.2-4.1-1.1-0.9-2.5c2.1-0.9,3.5-4.1,4.2-6
					c-0.1,2.1-0.2,3.8,0,4.9c0.7,4.2,1.1,30,1,33.2c0,0-1-23.9-1.1-25.7C168,216.7,167.9,211.6,167.4,212.8z"/>
				<path class="st2" d="M162.6,267.5c0.8,1,1.4,2,1.9,2.9h0.1c0.3,0,0.5,0,0.8,0.1c-1.3-1.7-2.7-3.5-3.7-6
					c-1.8-4.3-0.2-8.5,0.2-11.2c0.5-2.7,0-8-2.1-15.9c-2.1-7.8-3.6-25.9-2.1-24.4s2.1,0.5,0.4-3.2c-1.8-3.7-2.5-10.5,0-10.7
					s6-1.5,8.8-2.6c0.9-0.4,1.5,0.4,1.9,1.5c0.3-3.6,0.4-7.5,0.1-10.8c-0.9-8.3-19.3-10.5-16.5,5.8c0,0,1.7,10.3,2.5,13.2
					c1.1,4.2-1.1,11.3,1.6,22.3c2.7,11,5.5,24.1,4.1,28.2C159.1,260.9,159.3,263.3,162.6,267.5z"/>
				<path class="st1" d="M179.2,272.2c0.5,0.7,1.1,1.3,1.8,1.7c0.3,0.1,0.6-0.5,0.4-0.6c-0.6-0.3-1.2-0.8-1.6-1.5"/>
				<path class="st1" d="M168.3,276.2c-1.1-1.3-1.8-2.7-2.7-4.3c-1.5-2.9-3.8-5.3-5.1-8.3c-1.2-2.7-0.1-5.1,0.4-7.8
					c0.8-4.5-0.5-9.6-1.4-14c-1.3-6.9-3.5-13.7-4.2-20.6c-0.4-4.6,0.4-9.3-0.2-13.9c-0.4-3.6-1.5-7.2-2.1-10.8
					c-0.6-3.5-1.5-7.2-0.2-10.7c1.3-3.4,4.9-4.8,8.3-4.4c2.9,0.3,5.8,2,7,4.7c0.9,2.1,0.6,4.9,0.5,7.1c0,3.2-0.3,6.3-0.6,9.5
					c-0.6,7.2,0.3,14.4,0.5,21.6c0.2,6.9,0.5,13.8,0.3,20.6c-0.1,4.1-0.4,9.2,1.6,12.9c1.9,3.5,4.3,6.9,6.3,10.3
					c0.7,1.1,1.4,2.9,2.4,4.2"/>
				<path class="st3" d="M180.4,273.1c-0.5-0.8-1.5-2.9-1.9-3.6c-1.1-1.9-2.2-3.8-3.3-5.7c-1-1.7-2.1-3.5-3.2-5.1
					c-1.4-2.1-2-4.1-2.3-6.6c-0.4-3.4-0.2-6.8-0.2-10.3c0-3.7-0.1-7.3-0.2-11c-0.1-7-0.5-14-1-21c-0.4-5.4,0.7-10.9,0.9-16.2
					c0.1-3.5,0.5-7.6-2.1-10.3c-3.5-3.6-10.2-3.6-13.4,0.3c-2,2.5-2.2,6.1-1.7,9.1c0.5,3.3,1.1,6.5,1.7,9.8c0.3,1.6,0.7,3.2,1,4.8
					c0.4,2.1,0.1,4.3,0.1,6.4c-0.2,6,0.5,11.7,1.9,17.6c1.5,6.4,3,12.8,3.7,19.3c0.2,2,0.5,4.3-0.2,6.3c-0.6,2.1-1.1,3.9-0.6,6.1
					c0.6,2.7,2.7,4.8,4.2,7c1.4,2.1,2.3,4.5,3.8,6.5c0,0.1,0.4,0.2,0.5,0.3"/>
				<path class="st4" d="M166.2,218c1.4,2.7,2.1,33.3,1.1,34.2s-1.3-1.1-2-7.8s-3.5-24.3-2.5-26.3
					C163.3,217.1,165.3,216.2,166.2,218z"/>
				<path class="st4" d="M163.3,199.8c2.9-1.2,3.4,0.4,3.6,2.5c0.2,2.1-0.5,7.4-2.9,8.1c-2.4,0.7-4-3.5-4.5-6.5
					C159.1,200.9,160.6,201,163.3,199.8z"/>
			</g>
		</g>
		<g>
			<g>
				<path class="st0" d="M112.9,275.8c0.4,1,1.6,0.8,1.6,0.8c0.4,1.2,1.6,1,1.6,1c0.6,1.4,2.1,0.7,2.1,0.7c0.1,0.1,0.2,0.2,0.3,0.3
					c1.1,1,2.3,0.5,2.4,0.4c0.2,0.2,0.4,0.3,0.7,0.4c1.5,0.6,2.6-0.1,5.2-2.2s2.9-5.5,6.2-9.8c3.3-4.2,3.6-6.6,2.2-10.7
					c-1.4-4.1,1.4-17.1,4.1-28.2c2.7-11,0.5-18.2,1.6-22.3c0.8-2.9,2.5-13.2,2.5-13.2c2.8-16.4-15.6-14.1-16.5-5.8
					s1.3,19.7,0.6,23.8c-0.7,4.2-1.1,30-1,33.2s0.2,10.8-1.8,13.5c-2,2.7-7.6,12.6-8.3,13.7c-0.7,1.1-1,1.8-1.9,2.1
					C113.4,273.9,112.5,274.8,112.9,275.8z"/>
				<path class="st1" d="M112.7,276.1c0.3,0.6,0.7,0.8,1.4,0.9c0.5,0,0.7,0.7,1.2,0.9c0.8,0.3,0.3,0,1,0.5c0.6,0.4,1.1,0.5,1.8,0.3
					c0.1,0,1.4,0.8,1.9,0.9c0.7,0.1,1.2,0.2,1.9,0.4c1.8,0.5,3.8-1.4,5-2.4c1.5-1.2,2.4-3.1,3.2-4.8c1.5-3,3.7-5.4,5.2-8.3
					c2-3.9-0.3-7.4-0.2-11.4c0.2-12.5,5.8-24.2,5.8-36.7c0-4.1-0.3-7.8,0.6-11.8c0.8-3.7,1.4-7.4,2-11.1c1-5.8-0.5-12.4-7.4-12.8
					c-2.5-0.2-5,0.7-7,2.3c-2.4,1.9-2.6,4.5-2.7,7.3c-0.2,5.8,0.7,11.6,0.9,17.4c0.1,2.8-0.4,5.7-0.5,8.5
					c-0.4,8.1-0.5,16.1-0.6,24.2c0,2.3,0,4.7,0,7c0,2.4-0.1,4.9-0.6,7.3c-0.4,1.9-1.4,3.3-2.4,4.9c-2,3.2-3.9,6.5-5.8,9.7
					c-0.7,1.3-1.7,3.4-3,4C113.2,273.9,112.5,274.6,112.7,276.1c0.1,0.3,0.5-0.1,0.5-0.4c-0.1-1.1,1.9-2,2.6-2.9
					c0.4-0.5,0.7-1.1,1-1.6c0.9-1.5,1.8-3.1,2.7-4.6c1.1-1.9,2.2-3.8,3.3-5.6c0.9-1.4,2-2.8,2.6-4.3c1.7-3.7,1.3-8.6,1.2-12.6
					c-0.1-2.7,0-5.5,0.1-8.2c0.1-7.8,0.1-15.8,0.8-23.6c0.3-3.8,0.1-7.5-0.2-11.3c-0.2-2.9-0.4-5.9-0.5-8.9c0-2.4-0.2-5.2,1.1-7.3
					c1.6-2.7,5.3-3.7,8.2-3.5c3.4,0.2,6,2.6,6.8,5.8c0.9,3.4-0.1,7.2-0.7,10.5c-0.6,3.5-1.7,7.1-2,10.7c-0.4,5.1,0.3,10.2-0.3,15.3
					c-0.8,6.7-3,13.3-4.2,19.9c-0.8,4.1-1.9,9-0.9,13.2c0.8,3.3,1.3,5.6-0.6,8.7c-1.7,2.8-3.6,5.3-5.1,8.2c-1.2,2.4-2.9,4.1-5.2,5.4
					c-1.5,0.8-1.6-0.1-2.9-0.3c-1-0.1-1.7,0.2-2.6-0.7c0,0-0.1-0.1-0.2-0.1c-0.8,0.3-1.4,0.1-1.9-0.7c0-0.1-0.1-0.1-0.2-0.1
					c-0.7,0.1-1.1-0.3-1.5-0.9c0-0.1-0.1-0.1-0.2-0.1c-0.7,0.1-1.1-0.1-1.4-0.7C113,275.3,112.5,275.9,112.7,276.1z"/>
			</g>
			<path class="st1" d="M112.7,276.1c0.3,0.6,0.7,0.8,1.4,0.9c0.5,0,0.7,0.7,1.2,0.9c0.8,0.3,0.3,0,1,0.5c0.6,0.4,1.1,0.5,1.8,0.3
				c0.1,0,1.4,0.8,1.9,0.9c0.7,0.1,1.2,0.2,1.9,0.4c1.8,0.5,3.8-1.4,5-2.4c1.5-1.2,2.4-3.1,3.2-4.8c1.5-3,3.7-5.4,5.2-8.3
				c2-3.9-0.3-7.4-0.2-11.4c0.2-12.5,5.8-24.2,5.8-36.7c0-4.1-0.3-7.8,0.6-11.8c0.8-3.7,1.4-7.4,2-11.1c1-5.8-0.5-12.4-7.4-12.8
				c-2.5-0.2-5,0.7-7,2.3c-2.4,1.9-2.6,4.5-2.7,7.3c-0.2,5.8,0.7,11.6,0.9,17.4c0.1,2.8-0.4,5.7-0.5,8.5c-0.4,8.1-0.5,16.1-0.6,24.2
				c0,2.3,0,4.7,0,7c0,2.4-0.1,4.9-0.6,7.3c-0.4,1.9-1.4,3.3-2.4,4.9c-2,3.2-3.9,6.5-5.8,9.7c-0.7,1.3-1.7,3.4-3,4
				C113.2,273.9,112.5,274.6,112.7,276.1c0.1,0.3,0.5-0.1,0.5-0.4c-0.1-1.1,1.9-2,2.6-2.9c0.4-0.5,0.7-1.1,1-1.6
				c0.9-1.5,1.8-3.1,2.7-4.6c1.1-1.9,2.2-3.8,3.3-5.6c0.9-1.4,2-2.8,2.6-4.3c1.7-3.7,1.3-8.6,1.2-12.6c-0.1-2.7,0-5.5,0.1-8.2
				c0.1-7.8,0.1-15.8,0.8-23.6c0.3-3.8,0.1-7.5-0.2-11.3c-0.2-2.9-0.4-5.9-0.5-8.9c0-2.4-0.2-5.2,1.1-7.3c1.6-2.7,5.3-3.7,8.2-3.5
				c3.4,0.2,6,2.6,6.8,5.8c0.9,3.4-0.1,7.2-0.7,10.5c-0.6,3.5-1.7,7.1-2,10.7c-0.4,5.1,0.3,10.2-0.3,15.3c-0.8,6.7-3,13.3-4.2,19.9
				c-0.8,4.1-1.9,9-0.9,13.2c0.8,3.3,1.3,5.6-0.6,8.7c-1.7,2.8-3.6,5.3-5.1,8.2c-1.2,2.4-2.9,4.1-5.2,5.4c-1.5,0.8-1.6-0.1-2.9-0.3
				c-1-0.1-1.7,0.2-2.6-0.7c0,0-0.1-0.1-0.2-0.1c-0.8,0.3-1.4,0.1-1.9-0.7c0-0.1-0.1-0.1-0.2-0.1c-0.7,0.1-1.1-0.3-1.5-0.9
				c0-0.1-0.1-0.1-0.2-0.1c-0.7,0.1-1.1-0.1-1.4-0.7C113,275.3,112.5,275.9,112.7,276.1z"/>
			<path class="st4" d="M129.4,218c-1.4,2.7-2.1,33.3-1.1,34.2c1,0.9,1.3-1.1,2-7.8s3.5-24.3,2.5-26.3
				C132.2,217.1,130.3,216.2,129.4,218z"/>
			<path class="st4" d="M132.3,199.8c-2.9-1.2-3.4,0.4-3.6,2.5c-0.2,2.1,0.5,7.4,2.9,8.1c2.4,0.7,4-3.5,4.5-6.5
				C136.5,200.9,135,201,132.3,199.8z"/>
		</g>
	</g>
</g>
<g id="foot">
	<path class="st4" d="M170.4,257.9c1.3,1.9,6.2,10.3,7.3,12.6c1.2,2.4,0.4,1.7-0.3,1.4c-0.7-0.2,0.4,1.2-1.2,0.7
		c-1.5-0.5-1.1,1.9-3.3,0.9c-2.3-1-1.8,1.6-3.3-0.1s-4.7-10.4-6.2-12.9s0.2-1.9,0.6-3.1c0.4-1.2,4.3,0.3,5.1-1
		C169.9,255.1,169.8,257.1,170.4,257.9z"/>
	<path class="st4" d="M125.2,257.9c-1.3,1.9-6.2,10.3-7.3,12.6c-1.2,2.4-0.4,1.7,0.3,1.4s-0.4,1.2,1.2,0.7c1.5-0.5,1.1,1.9,3.3,0.9
		c2.3-1,1.8,1.6,3.3-0.1s4.7-10.4,6.2-12.9s-0.2-1.9-0.6-3.1c-0.4-1.2-4.3,0.3-5.1-1S125.7,257.1,125.2,257.9z"/>
</g>
<g id="body">
	<g>
		<g>
			<g>
				<g>
					<path class="st0" d="M188.2,162.4c-0.5-1.6-1.5-2.9-2.8-5.3c-1.3-2.4-1.5-6.1-2.9-12.8c-1.4-6.8-3.5-12-4.6-16
						c-1-4-2.1-9.9-2.7-12c-0.5-2-0.4-2.9-1.5-9.5s-5.6-8.3-8.3-8.9c-6.9-1.4-10.5-3.6-11-5c-0.9-2.7-0.6-6.9-0.6-6.9h-11.9
						c0,0,0.3,4.2-0.6,6.9c-0.5,1.4-4.6,3.6-11.5,5c-2.8,0.5-7.3,2.3-8.3,8.9c-1.1,6.6-0.9,7.5-1.5,9.5c-0.5,2-1.6,7.9-2.7,12
						c-1,4-3.1,9.3-4.6,16c-1.4,6.8-1.6,10.4-2.9,12.8c-1.3,2.4-2.2,3.7-2.8,5.3c-0.5,1.6-0.5,6.8-0.3,8.3c0.2,1.4,1.1,5.5,2,5.8
						c0.3,0.1,0.6,0,0.8-0.4c0.6,1.3,1.3,2.3,1.9,2.6s1,0.1,1.2-0.2c0.2,0.3,0.5,0.6,0.8,0.8c0.2,0.5,0.4,0.9,0.6,1.2
						c1.2,1.7,1.8-0.9,1.5-2.6c-0.3-1.7-0.8-4.3-0.5-6.3s1.1-4.6,1.4-4.7c0.3-0.1,1.2,2.6,1.8,4.4c0.6,1.8,3,2.5,3.5,1.3
						c0.2-0.5-1.2-2.8-1.5-5.1s0.5-5.2-2.1-9.2c0,0-0.4-1.1,0.2-3.1s4.9-13.2,5.5-18.3c0.6-5.2,2.1-8.6,2.8-10.4
						c0.4-1,1.4-4,2.2-6.4c0.4,2,0.9,4.1,1.1,4.9c0.5,1.6,0.4,5.3,0.8,7.2c0.4,2,0.2,4.9,0.5,8.2c0.2,3.3,0.9,8.3,0,10.3
						c0,0-3.8,10.7,8.4,13h15.6c12.1-2.3,8.4-13,8.4-13c-0.9-2-0.2-7,0-10.3s0.1-6.2,0.5-8.2s0.3-5.7,0.8-7.2
						c0.2-0.8,0.7-2.9,1.1-4.9c0.8,2.4,1.9,5.4,2.2,6.4c0.6,1.8,2.1,5.2,2.8,10.4c0.6,5.2,4.9,16.3,5.5,18.3s0.2,3.1,0.2,3.1
						c-2.6,4-1.8,6.9-2.1,9.2s-1.8,4.5-1.5,5.1c0.5,1.2,2.9,0.5,3.5-1.3s1.5-4.4,1.8-4.4c0.3,0.1,1.1,2.7,1.4,4.7
						c0.3,2-0.2,4.6-0.5,6.3s0.4,4.3,1.5,2.6c0.2-0.3,0.4-0.8,0.6-1.2c0.3-0.2,0.5-0.5,0.8-0.8c0.2,0.3,0.5,0.5,1.2,0.2
						c0.6-0.3,1.3-1.3,1.9-2.6c0.2,0.3,0.4,0.5,0.8,0.4c0.9-0.4,1.8-4.4,2-5.8C188.7,169.3,188.8,164,188.2,162.4z"/>
					<path class="st1" d="M188.4,162.4c-0.8-2.3-2.5-4.2-3.3-6.6c-0.8-2.1-1-4.5-1.4-6.7c-0.6-3.5-1.3-6.9-2.3-10.3
						c-0.8-2.8-1.7-5.6-2.6-8.5c-1.5-4.8-2.2-9.7-3.4-14.6c-1-4-0.6-8.4-2.2-12.2c-1-2.2-2.5-3.9-4.6-4.9c-2.4-1.2-5.2-1.4-7.7-2.2
						c-1.9-0.6-4.9-1.5-6.1-3.4c-0.7-1.2-0.6-3-0.7-4.3c0-0.9,0-1.8,0-2.8c0-0.1-0.1-0.2-0.2-0.2c-4,0-7.9,0-11.9,0
						c-0.1,0-0.2,0.1-0.2,0.2c0.1,2.1,0.1,4.2-0.4,6.3c-0.4,1.9-2.6,2.7-4.2,3.4c-2.6,1.1-5.4,1.6-8.1,2.3c-1.7,0.4-3.2,1.3-4.5,2.4
						c-1.8,1.7-2.7,4-3.1,6.4c-0.4,2.3-0.7,4.6-1,7c-0.2,1.4-0.5,2.7-0.8,4c-0.6,2.7-1.1,5.5-1.8,8.2c-1.2,5.3-3.2,10.5-4.5,15.8
						c-0.8,3.1-1.3,6.3-1.9,9.4c-0.3,1.9-0.7,4-1.5,5.7c-0.9,2-2.5,3.8-3,6c-0.4,2-0.3,4.2-0.3,6.3c0.1,1.8,0.4,3.6,1,5.3
						c0.3,0.9,1.2,3.4,2.3,1.8c-0.1,0-0.3,0-0.4,0c0.4,0.9,2.2,4.2,3.5,2.4c-0.1,0-0.2,0-0.4,0c0.5,0.6,0.8,1.1,1.2,1.8
						c0.2,0.3,0.4,0.6,0.8,0.9c0.5,0.3,0.9-0.2,1.1-0.6c0.4-0.9,0.4-1.9,0.3-2.8c-0.2-1.7-0.6-3.4-0.6-5.1c0-1.5,0.4-3,0.9-4.4
						c0.1-0.3,0.2-0.6,0.3-0.9c0.1-0.2,0-0.3,0.1-0.1c0.4,0.6,0.6,1.4,0.8,2.1c0.6,1.7,1.4,4.2,3.7,3.9c2-0.3,0.2-3.1-0.1-4
						c-0.8-2.3-0.4-4.8-0.9-7.2c-0.1-0.6-0.3-1.2-0.6-1.7c-0.3-0.7-0.9-1.4-1.1-2.1c-0.3-1,0-2.2,0.3-3.1c0.5-1.6,1.1-3.2,1.7-4.7
						c1.7-4.8,3.2-9.7,4-14.7c0.8-5.3,3.1-10.4,4.8-15.5c-0.2,0-0.3,0-0.5,0c0.5,2.8,1.4,5.4,1.5,8.3c0.2,2.7,0.6,5.4,0.7,8.1
						c0.1,3.1,0.4,6.2,0.6,9.3c0.1,1.8,0,3.3-0.5,5c-0.6,2.1-0.7,4.4,0,6.5c1.2,3.9,4.9,5.8,8.7,6.6c0.7,0.1,1.6,0,2.3,0
						c1.8,0,3.5,0,5.3,0c2.7,0,5.4,0,8,0c1,0,2.2-0.5,3.2-0.9c0.9-0.4,1.8-0.8,2.6-1.5c1.3-1,2.3-2.3,2.8-3.9
						c0.8-2.1,0.7-4.6,0.1-6.7c-1.2-4.5-0.1-9.4,0.1-14c0.1-2.8,0.5-5.4,0.7-8.2c0.2-3,1-5.7,1.6-8.6c-0.2,0-0.3,0-0.5,0
						c1.7,4.8,3.7,9.6,4.7,14.7c0.5,2.4,0.8,4.8,1.4,7.2c0.7,2.5,1.5,4.9,2.3,7.3c0.6,1.8,1.3,3.6,1.9,5.4c0.3,0.9,0.6,1.9,0.6,2.9
						c0,1.1-1,2.2-1.4,3.2c-0.9,2.3-0.5,4.7-0.9,7.1c-0.2,1.4-0.8,2.6-1.3,3.9c-0.2,0.6-0.2,1.1,0.3,1.5c0.6,0.5,1.6,0.1,2.2-0.2
						c1-0.5,1.3-1.6,1.7-2.6c0.2-0.6,0.5-1.3,0.7-1.9c0.1-0.3,0.3-0.6,0.4-0.9c0.1-0.3,0.1-0.4,0.2-0.1c0.7,1.3,1,3,1.2,4.5
						c0.2,1.7-0.1,3.5-0.4,5.3c-0.2,1.1-0.3,2.2,0.1,3.2c0.2,0.5,0.6,1,1.1,0.8c0.3-0.1,0.5-0.4,0.7-0.6c0.4-0.7,0.8-1.4,1.3-2
						c-0.1,0-0.2,0-0.4,0c1.3,1.8,3.1-1.5,3.5-2.4c-0.1,0-0.3,0-0.4,0c1.7,2.3,3-4.3,3.1-5.2c0.2-1.4,0.2-2.8,0.2-4.2
						C188.9,165.4,188.9,163.8,188.4,162.4c-0.1-0.3-0.5-0.2-0.5,0.1c0.7,2.3,0.5,5,0.4,7.3c-0.1,1.1-0.3,2.1-0.5,3.1
						c-0.1,0.4-1.1,4.1-1.9,3.1c-0.1-0.1-0.3-0.2-0.4,0c-0.2,0.5-1.8,3.6-2.7,2.4c-0.1-0.1-0.3-0.2-0.4,0c-0.5,0.6-0.8,0.9-1.1,1.6
						c-0.1,0.2-0.6,1.3-1,0.9c-0.2-0.2-0.3-0.6-0.4-0.9c-0.3-1.4,0.2-3,0.4-4.4c0.3-2.7,0.1-5.5-1-8.1c-0.8-1.8-1.5,0.9-1.8,1.6
						c-0.5,1.4-0.8,3-2.2,3.7c-0.5,0.3-2,0.4-1.7-0.6c0.2-0.7,0.5-1.3,0.8-1.9c1-2.4,0.6-4.8,1-7.3c0.3-1.6,0.9-3.1,1.8-4.4
						c0.3-0.4,0.2-1.3,0.1-1.8c-0.2-1.7-1-3.3-1.5-4.9c-0.8-2.3-1.6-4.6-2.3-6.9c-0.6-2-1.2-3.9-1.6-5.9c-0.5-2.2-0.7-4.5-1.3-6.8
						c-1-4.1-2.7-8.1-4.1-12.1c-0.1-0.2-0.4-0.2-0.5,0c-0.5,2.6-1.3,5.1-1.5,7.7c-0.2,2.7-0.6,5.3-0.7,8c-0.1,3.1-0.4,6.2-0.6,9.3
						c-0.1,1.9-0.2,3.8,0.4,5.7c0.7,2,0.7,4.4,0.1,6.4c-0.6,1.8-1.8,3.3-3.4,4.4c-1.4,1-3.5,1.8-5.2,1.8c-3.2,0-6.4,0-9.5,0
						c-1.5,0-3.1,0-4.6,0c-1.4,0-2.7-0.3-4.1-0.9c-3.6-1.4-5.7-4.6-5.6-8.5c0-2.3,1-4.3,1-6.6s-0.3-4.6-0.5-6.8
						c-0.2-2.6-0.1-5.3-0.4-7.9c-0.3-2.1-0.4-4.2-0.6-6.3c-0.2-2.2-1-4.3-1.4-6.5c0-0.2-0.4-0.2-0.5,0c-1.7,4.8-3.7,9.6-4.7,14.7
						c-0.5,2.4-0.8,4.8-1.4,7.2c-0.7,2.5-1.5,4.9-2.3,7.3c-0.6,1.8-1.3,3.6-1.9,5.4c-0.6,1.7-0.9,3.1,0,4.6c1.5,2.5,1.4,5.1,1.6,7.9
						c0.1,1.3,0.5,2.5,1,3.7c0.2,0.5,0.4,1,0.6,1.5c0.4,1.3-2,0.3-2.3,0c-0.9-0.7-1.2-2.3-1.6-3.3c-0.2-0.6-0.5-1.7-1-2.1
						c-0.8-0.7-1.3,2-1.4,2.3c-0.7,2.4-0.7,4.7-0.3,7.2c0.2,1.3,0.5,2.5,0.2,3.8c-0.3,1.2-1,0.4-1.3-0.3c-0.3-0.6-0.6-1-1.1-1.6
						c-0.1-0.1-0.3-0.1-0.4,0c-0.9,1.2-2.5-1.9-2.7-2.4c-0.1-0.2-0.3-0.1-0.4,0c-0.8,1-1.6-2.1-1.7-2.5c-0.3-1-0.5-2.1-0.6-3.1
						c-0.2-2.2-0.2-4.4,0.1-6.6c0.3-2.6,2.1-4.6,3.2-6.9c0.8-1.8,1.1-3.8,1.5-5.7c0.6-3.3,1.2-6.6,2-9.8c0.8-3.1,1.7-6,2.7-9
						c1.6-5.1,2.5-10.3,3.7-15.4c0.7-2.9,1-5.8,1.4-8.7c0.4-2.5,1-4.9,2.7-6.9c1.2-1.4,2.8-2.2,4.5-2.8c3.9-1.2,8.3-1.6,11.7-4.1
						c1.2-0.9,1.4-1.9,1.6-3.3c0.2-1.7,0.3-3.4,0.2-5c-0.1,0.1-0.2,0.2-0.2,0.2c4,0,7.9,0,11.9,0c-0.1-0.1-0.2-0.2-0.2-0.2
						c-0.1,1.9,0,3.9,0.3,5.8c0.3,1.6,1,2.4,2.3,3.3c2.1,1.3,4.6,2.1,7,2.7c2.1,0.5,4.1,0.8,6,2c4.6,2.9,4.6,9.2,5.3,14
						c0.2,1.2,0.5,2.4,0.7,3.6c0.6,2.7,1.1,5.3,1.7,8c1.5,6.9,4.1,13.5,5.5,20.4c0.6,3.1,1,6.2,1.8,9.2c0.7,2.8,2.7,4.9,3.6,7.6
						C188.1,162.8,188.6,162.7,188.4,162.4z"/>
				</g>
				<path class="st5" d="M181.3,180.6c-0.1,0.1-0.2,0.2-0.2,0.3l0,0c0.2-0.1,0.5-0.7,0.9-1.5l0,0
					C181.7,179.9,181.5,180.3,181.3,180.6z"/>
				<path class="st2" d="M174.1,172.2c0.5-0.8,1.5-2,1.8-4.1s0.7-5.3,2.2-8.3c1.5-2.9,6.4-3.1,5.7-3.5s-2.7,0.4-3.6-1.3
					c-3.8-7.1-5.2-14.9-5-18s0.2-3.3-1.6-7.5c-1.7-4.2-1.4-11.1-3.1-13.8c-1.7-2.7-2.5-7.7-2.6-9.3c-0.2-1.9-0.9-1.1-1.5,2.1
					c-0.5,3.2-0.4,9.3-1.6,12.7c-0.5,1.3-3.5,4.7-2.4,7.1c1.1,2.4,0.6,4.3,0.1,6c-0.8,2.7,0.6,6.7-1.3,10.6
					c-1.9,3.9-7.4,3.3-10.8,3.4c-3.3,0-3.1,0-5.3,0c-3.3,0-8.8,1.1-10.7-2.8c-1.9-3.9-0.8-8.3-1.2-10c-0.5-2.4-0.7-3.9,0.4-6.3
					c1.1-2.4,0.2-3.3-2.1-6.5c-2-2.9-1.8-10.9-2.4-14.1c-0.5-3.2-1.3-4-1.5-2.1c-0.1,1.6-0.9,6.6-2.6,9.3c-1.7,2.7-1.4,9.6-3.1,13.8
					c-1.7,4.2-1.8,4.4-1.6,7.5c0.2,3.1-1.2,10.9-5,18c-0.9,1.7-2.9,0.8-3.6,1.3c-0.7,0.4,4.2,0.6,5.7,3.5s1.9,6.2,2.2,8.3
					c0.3,2.1,1.2,3.3,1.8,4.1c0.5,0.8-0.6,1.7-2.1,0.4c-0.1-0.1-0.3-0.2-0.3-0.2c1,1,2.5,1.3,2.9,0.3c0.2-0.5-1.2-2.8-1.5-5.1
					s0.5-5.2-2.1-9.2c0,0-0.4-1.1,0.2-3.1s4.9-13.2,5.5-18.3c0.6-5.2,2.1-8.6,2.8-10.4c0.4-1,1.4-4,2.2-6.4c0.4,2,0.9,4.1,1.1,4.9
					c0.5,1.6,0.4,5.3,0.8,7.2c0.4,2,0.2,4.9,0.5,8.2c0.2,3.3,0.9,8.3,0,10.3c0,0-3.8,10.7,8.4,13h15.6c12.1-2.3,8.4-13,8.4-13
					c-0.9-2-0.2-7,0-10.3s0.1-6.2,0.5-8.2s0.3-5.7,0.8-7.2c0.2-0.8,0.7-2.9,1.1-4.9c0.8,2.4,1.9,5.4,2.2,6.4
					c0.6,1.8,2.1,5.2,2.8,10.4c0.6,5.2,4.9,16.3,5.5,18.3s0.2,3.1,0.2,3.1c-2.6,4-1.8,6.9-2.1,9.2s-1.8,4.5-1.5,5.1
					c0.4,0.9,1.8,0.7,2.8-0.2C174.7,173.8,173.6,172.9,174.1,172.2z"/>
				<path class="st2" d="M116.1,166.7c-0.7,1.7-1.7,4.4-1.6,6.4s0.9,5.4,0.9,6.3c0,1-0.2,1.6-0.6,1.5c-0.5-0.1-1.7-3.2-1.8-6
					c-0.1-2.8-0.1-4.3,0.2-6.1c0.3-1.8-0.3-1.6-0.7-0.2c-0.4,1.4-0.7,8-1.2,5.2c-0.6-2.8-0.2-5.2-0.2-6.1c0-0.9-0.5-1.1-0.8,0.8
					c-0.3,1.9-0.2,4.3,0,5.3s-0.8,1-1.3-1.3s-0.1-4.3,0-5.3s-0.1-1.7-0.6-0.4c-0.4,1.4-0.8,7-1.1,3c0-0.5-0.1-0.9-0.2-1.3
					c0,1,0.1,1.8,0.1,2.2c0.2,1.4,1.1,5.5,2,5.8c0.3,0.1,0.6,0,0.8-0.4c0.6,1.3,1.3,2.3,1.9,2.6s1,0.1,1.2-0.2
					c0.2,0.3,0.5,0.6,0.8,0.8c0.2,0.5,0.4,0.9,0.6,1.2c1.2,1.7,1.8-0.9,1.5-2.6c-0.3-1.7-0.8-4.3-0.5-6.3s1.1-4.6,1.4-4.7
					c0.1,0,0.4,0.6,0.8,1.5c0-0.2,0-0.4-0.1-0.7C117.3,166.7,116.8,165,116.1,166.7z"/>
				<path class="st2" d="M187.5,166.8c-0.4-1.4-0.6-0.6-0.6,0.4s0.4,3,0,5.3c-0.5,2.3-1.5,2.3-1.3,1.3s0.3-3.4,0-5.3
					c-0.3-1.9-0.8-1.7-0.8-0.8s0.3,3.3-0.2,6.1c-0.6,2.8-0.8-3.8-1.2-5.2s-1-1.6-0.7,0.2s0.4,3.3,0.2,6.1c-0.1,1.6-0.5,3.3-1,4.5
					c0.2-0.2,0.5-0.5,0.7-0.8c0.2,0.3,0.5,0.5,1.2,0.2c0.6-0.3,1.3-1.3,1.9-2.6c0.2,0.3,0.4,0.5,0.8,0.4c0.9-0.4,1.8-4.4,2-5.8
					c0-0.2,0-0.5,0.1-0.9C188.2,173.8,187.9,168.1,187.5,166.8z"/>
				<path class="st2" d="M180.4,179.4c0-1,0.8-4.3,0.9-6.3c0.1-2-0.9-4.8-1.6-6.4c-0.7-1.7-1.2,0-1.4,1.2l0,0
					c0.2-0.5,0.4-0.8,0.5-0.8c0.3,0.1,1.1,2.7,1.4,4.7c0.3,2-0.2,4.6-0.5,6.3c-0.3,1.6,0.3,4,1.3,2.9
					C180.6,181,180.5,180.4,180.4,179.4z"/>
				<path class="st1" d="M112.8,168c-0.4,2-0.6,4-0.5,6c0.1,2.2,0.5,4.8,1.7,6.7c0.2,0.3,0.6,0,0.4-0.2c-1.2-1.9-1.5-4.3-1.7-6.5
					c-0.2-1.9,0.1-3.9,0.4-5.8C113.3,167.9,112.9,167.7,112.8,168L112.8,168z"/>
				<path class="st1" d="M110.6,168.1c0.1,3.9-0.3,8.6,2.9,11.5c0.2,0.2,0.6-0.1,0.3-0.3c-3.1-2.8-2.7-7.4-2.8-11.1
					C111.1,167.8,110.6,167.8,110.6,168.1L110.6,168.1z"/>
				<path class="st1" d="M108.5,166.5c-0.2,2.7-0.3,5.6,0.5,8.2c0.3,0.9,2.4,6.1,4.1,4.1c0.2-0.2-0.1-0.6-0.3-0.3
					c-1,1.2-2.5-1.9-2.7-2.4c-0.6-1.2-1-2.6-1.1-3.9c-0.2-1.9-0.1-3.8,0-5.6C109,166.2,108.5,166.2,108.5,166.5L108.5,166.5z"/>
				<path class="st1" d="M128.1,107.5c0.1,1.6,0.3,3.3,0.3,4.9c0.1,1.9-0.1,3.8,0.2,5.6c0.3,2.3,0.8,4.6,1.4,6.9
					c0.7,2.4,0.4,5,0.9,7.5c0.1,0.3,0.5,0.2,0.5-0.1c-0.4-2.4-0.1-5-0.8-7.4c-0.6-2.2-1.1-4.5-1.4-6.7c-0.3-1.9-0.1-3.9-0.2-5.8
					c-0.1-1.6-0.2-3.3-0.3-4.9C128.5,107.2,128.1,107.2,128.1,107.5L128.1,107.5z"/>
				<g>
					<path class="st2" d="M138.8,98.3c3.2,0.1,2.7,0.3,4.4,0.6c1.7,0.3,2.6,0.1,2.3-0.6c-0.1-0.2-0.2,0.1-2.5-1.2
						c-1.5-0.9-2.1-1.4-0.7-2.8c0.9-1,1.3-2.6,3.7-1.7c2.4,0.8,3.7,0.6,5.4,0.1s2.2,1.7,3.2,2.3c1.1,0.6,1.6,1.8,0.6,2.1
						c-2,0.8-3,1.7-4.3,1.2c-1.3-0.4-0.4,0.8,0.9,0.9c1.3,0.1,3-1.2,6.1-0.9c2.3,0.2,6.9-0.3,11.1,0.9c-1.2-0.7-2.4-1-3.4-1.2
						c-6.9-1.4-10.5-3.6-11-5c-0.9-2.7-0.6-6.9-0.6-6.9h-11.9c0,0,0.3,4.2-0.6,6.9c-0.5,1.4-4.6,3.6-11.5,5c-1.2,0.2-2.6,0.7-4,1.6
						C130.5,97.5,136.1,98.2,138.8,98.3z"/>
				</g>
				<path class="st1" d="M144.3,98.6c-0.9,0.1-1.7-0.3-2.6-0.5c-0.7-0.2-1.4-0.2-2-0.2c-1.9-0.1-3.9,0-5.8-0.1
					c-0.1,0-0.5,0.2-0.2,0.2c2,0.2,3.9,0.1,5.9,0.2c1.1,0,1.9,0.3,2.9,0.6c0.6,0.2,1.2,0.2,1.8,0.2
					C144.6,98.8,144.6,98.6,144.3,98.6L144.3,98.6z"/>
				<g>
					<path class="st1" d="M182.3,168.2c0.3,1.8,0.6,3.7,0.5,5.6c-0.1,2.2-0.4,4.9-1.7,6.8c-0.2,0.3,0.2,0.5,0.4,0.2
						c1.2-1.9,1.5-4.3,1.7-6.4c0.2-2.1,0-4.2-0.4-6.3C182.7,167.7,182.2,167.9,182.3,168.2L182.3,168.2z"/>
					<path class="st1" d="M184.5,168.1c-0.1,3.8,0.3,8.3-2.8,11.1c-0.2,0.2,0.1,0.5,0.3,0.3c3.2-2.9,2.8-7.6,2.9-11.5
						C185,167.8,184.5,167.8,184.5,168.1L184.5,168.1z"/>
					<path class="st1" d="M186.6,166.5c0.1,1.9,0.2,3.8,0,5.6c-0.1,1.4-0.5,2.7-1.1,3.9c-0.2,0.5-1.7,3.6-2.7,2.4
						c-0.2-0.2-0.5,0.1-0.3,0.3c1.7,2,3.8-3.2,4.1-4.1c0.9-2.6,0.7-5.5,0.5-8.2C187.1,166.2,186.6,166.2,186.6,166.5L186.6,166.5z"
						/>
					<path class="st1" d="M167,107.5c-0.1,1.5-0.2,3.1-0.3,4.6c-0.1,2,0,4.1-0.2,6.1c-0.3,2.2-0.8,4.4-1.4,6.6
						c-0.7,2.4-0.4,5-0.9,7.5c-0.1,0.3,0.4,0.4,0.5,0.1c0.5-2.5,0.2-5.1,0.9-7.5c0.6-2.2,1.1-4.6,1.4-6.9c0.3-1.9,0.1-3.8,0.2-5.6
						c0.1-1.6,0.2-3.3,0.3-4.9C167.5,107.2,167,107.2,167,107.5L167,107.5z"/>
					<path class="st1" d="M151.3,98.8c1.5,0.2,3-0.6,4.5-0.7c2-0.1,4.1,0,6.1-0.2c0.3,0-0.1-0.2-0.2-0.2c-1.8,0.2-3.7,0.1-5.5,0.1
						c-0.7,0-1.4,0.1-2.1,0.2c-0.9,0.2-1.8,0.7-2.7,0.5C151,98.6,151,98.8,151.3,98.8L151.3,98.8z"/>
				</g>
				<path class="st1" d="M188.4,162.4c-0.8-2.3-2.5-4.2-3.3-6.6c-0.8-2.1-1-4.5-1.4-6.7c-0.6-3.5-1.3-6.9-2.3-10.3
					c-0.8-2.8-1.7-5.6-2.6-8.5c-1.5-4.8-2.2-9.7-3.4-14.6c-1-4-0.6-8.4-2.2-12.2c-1-2.2-2.5-3.9-4.6-4.9c-2.4-1.2-5.2-1.4-7.7-2.2
					c-1.9-0.6-4.9-1.5-6.1-3.4c-0.7-1.2-0.6-3-0.7-4.3c0-0.9,0-1.8,0-2.8c0-0.1-0.1-0.2-0.2-0.2c-4,0-7.9,0-11.9,0
					c-0.1,0-0.2,0.1-0.2,0.2c0.1,2.1,0.1,4.2-0.4,6.3c-0.4,1.9-2.6,2.7-4.2,3.4c-2.6,1.1-5.4,1.6-8.1,2.3c-1.7,0.4-3.2,1.3-4.5,2.4
					c-1.8,1.7-2.7,4-3.1,6.4c-0.4,2.3-0.7,4.6-1,7c-0.2,1.4-0.5,2.7-0.8,4c-0.6,2.7-1.1,5.5-1.8,8.2c-1.2,5.3-3.2,10.5-4.5,15.8
					c-0.8,3.1-1.3,6.3-1.9,9.4c-0.3,1.9-0.7,4-1.5,5.7c-0.9,2-2.5,3.8-3,6c-0.4,2-0.3,4.2-0.3,6.3c0.1,1.8,0.4,3.6,1,5.3
					c0.3,0.9,1.2,3.4,2.3,1.8c-0.1,0-0.3,0-0.4,0c0.4,0.9,2.2,4.2,3.5,2.4c-0.1,0-0.2,0-0.4,0c0.5,0.6,0.8,1.1,1.2,1.8
					c0.2,0.3,0.4,0.6,0.8,0.9c0.5,0.3,0.9-0.2,1.1-0.6c0.4-0.9,0.4-1.9,0.3-2.8c-0.2-1.7-0.6-3.4-0.6-5.1c0-1.5,0.4-3,0.9-4.4
					c0.1-0.3,0.2-0.6,0.3-0.9c0.1-0.2,0-0.3,0.1-0.1c0.4,0.6,0.6,1.4,0.8,2.1c0.6,1.7,1.4,4.2,3.7,3.9c2-0.3,0.2-3.1-0.1-4
					c-0.8-2.3-0.4-4.8-0.9-7.2c-0.1-0.6-0.3-1.2-0.6-1.7c-0.3-0.7-0.9-1.4-1.1-2.1c-0.3-1,0-2.2,0.3-3.1c0.5-1.6,1.1-3.2,1.7-4.7
					c1.7-4.8,3.2-9.7,4-14.7c0.8-5.3,3.1-10.4,4.8-15.5c-0.2,0-0.3,0-0.5,0c0.5,2.8,1.4,5.4,1.5,8.3c0.2,2.7,0.6,5.4,0.7,8.1
					c0.1,3.1,0.4,6.2,0.6,9.3c0.1,1.8,0,3.3-0.5,5c-0.6,2.1-0.7,4.4,0,6.5c1.2,3.9,4.9,5.8,8.7,6.6c0.7,0.1,1.6,0,2.3,0
					c1.8,0,3.5,0,5.3,0c2.7,0,5.4,0,8,0c1,0,2.2-0.5,3.2-0.9c0.9-0.4,1.8-0.8,2.6-1.5c1.3-1,2.3-2.3,2.8-3.9
					c0.8-2.1,0.7-4.6,0.1-6.7c-1.2-4.5-0.1-9.4,0.1-14c0.1-2.8,0.5-5.4,0.7-8.2c0.2-3,1-5.7,1.6-8.6c-0.2,0-0.3,0-0.5,0
					c1.7,4.8,3.7,9.6,4.7,14.7c0.5,2.4,0.8,4.8,1.4,7.2c0.7,2.5,1.5,4.9,2.3,7.3c0.6,1.8,1.3,3.6,1.9,5.4c0.3,0.9,0.6,1.9,0.6,2.9
					c0,1.1-1,2.2-1.4,3.2c-0.9,2.3-0.5,4.7-0.9,7.1c-0.2,1.4-0.8,2.6-1.3,3.9c-0.2,0.6-0.2,1.1,0.3,1.5c0.6,0.5,1.6,0.1,2.2-0.2
					c1-0.5,1.3-1.6,1.7-2.6c0.2-0.6,0.5-1.3,0.7-1.9c0.1-0.3,0.3-0.6,0.4-0.9c0.1-0.3,0.1-0.4,0.2-0.1c0.7,1.3,1,3,1.2,4.5
					c0.2,1.7-0.1,3.5-0.4,5.3c-0.2,1.1-0.3,2.2,0.1,3.2c0.2,0.5,0.6,1,1.1,0.8c0.3-0.1,0.5-0.4,0.7-0.6c0.4-0.7,0.8-1.4,1.3-2
					c-0.1,0-0.2,0-0.4,0c1.3,1.8,3.1-1.5,3.5-2.4c-0.1,0-0.3,0-0.4,0c1.7,2.3,3-4.3,3.1-5.2c0.2-1.4,0.2-2.8,0.2-4.2
					C188.9,165.4,188.9,163.8,188.4,162.4c-0.1-0.3-0.5-0.2-0.5,0.1c0.7,2.3,0.5,5,0.4,7.3c-0.1,1.1-0.3,2.1-0.5,3.1
					c-0.1,0.4-1.1,4.1-1.9,3.1c-0.1-0.1-0.3-0.2-0.4,0c-0.2,0.5-1.8,3.6-2.7,2.4c-0.1-0.1-0.3-0.2-0.4,0c-0.5,0.6-0.8,0.9-1.1,1.6
					c-0.1,0.2-0.6,1.3-1,0.9c-0.2-0.2-0.3-0.6-0.4-0.9c-0.3-1.4,0.2-3,0.4-4.4c0.3-2.7,0.1-5.5-1-8.1c-0.8-1.8-1.5,0.9-1.8,1.6
					c-0.5,1.4-0.8,3-2.2,3.7c-0.5,0.3-2,0.4-1.7-0.6c0.2-0.7,0.5-1.3,0.8-1.9c1-2.4,0.6-4.8,1-7.3c0.3-1.6,0.9-3.1,1.8-4.4
					c0.3-0.4,0.2-1.3,0.1-1.8c-0.2-1.7-1-3.3-1.5-4.9c-0.8-2.3-1.6-4.6-2.3-6.9c-0.6-2-1.2-3.9-1.6-5.9c-0.5-2.2-0.7-4.5-1.3-6.8
					c-1-4.1-2.7-8.1-4.1-12.1c-0.1-0.2-0.4-0.2-0.5,0c-0.5,2.6-1.3,5.1-1.5,7.7c-0.2,2.7-0.6,5.3-0.7,8c-0.1,3.1-0.4,6.2-0.6,9.3
					c-0.1,1.9-0.2,3.8,0.4,5.7c0.7,2,0.7,4.4,0.1,6.4c-0.6,1.8-1.8,3.3-3.4,4.4c-1.4,1-3.5,1.8-5.2,1.8c-3.2,0-6.4,0-9.5,0
					c-1.5,0-3.1,0-4.6,0c-1.4,0-2.7-0.3-4.1-0.9c-3.6-1.4-5.7-4.6-5.6-8.5c0-2.3,1-4.3,1-6.6s-0.3-4.6-0.5-6.8
					c-0.2-2.6-0.1-5.3-0.4-7.9c-0.3-2.1-0.4-4.2-0.6-6.3c-0.2-2.2-1-4.3-1.4-6.5c0-0.2-0.4-0.2-0.5,0c-1.7,4.8-3.7,9.6-4.7,14.7
					c-0.5,2.4-0.8,4.8-1.4,7.2c-0.7,2.5-1.5,4.9-2.3,7.3c-0.6,1.8-1.3,3.6-1.9,5.4c-0.6,1.7-0.9,3.1,0,4.6c1.5,2.5,1.4,5.1,1.6,7.9
					c0.1,1.3,0.5,2.5,1,3.7c0.2,0.5,0.4,1,0.6,1.5c0.4,1.3-2,0.3-2.3,0c-0.9-0.7-1.2-2.3-1.6-3.3c-0.2-0.6-0.5-1.7-1-2.1
					c-0.8-0.7-1.3,2-1.4,2.3c-0.7,2.4-0.7,4.7-0.3,7.2c0.2,1.3,0.5,2.5,0.2,3.8c-0.3,1.2-1,0.4-1.3-0.3c-0.3-0.6-0.6-1-1.1-1.6
					c-0.1-0.1-0.3-0.1-0.4,0c-0.9,1.2-2.5-1.9-2.7-2.4c-0.1-0.2-0.3-0.1-0.4,0c-0.8,1-1.6-2.1-1.7-2.5c-0.3-1-0.5-2.1-0.6-3.1
					c-0.2-2.2-0.2-4.4,0.1-6.6c0.3-2.6,2.1-4.6,3.2-6.9c0.8-1.8,1.1-3.8,1.5-5.7c0.6-3.3,1.2-6.6,2-9.8c0.8-3.1,1.7-6,2.7-9
					c1.6-5.1,2.5-10.3,3.7-15.4c0.7-2.9,1-5.8,1.4-8.7c0.4-2.5,1-4.9,2.7-6.9c1.2-1.4,2.8-2.2,4.5-2.8c3.9-1.2,8.3-1.6,11.7-4.1
					c1.2-0.9,1.4-1.9,1.6-3.3c0.2-1.7,0.3-3.4,0.2-5c-0.1,0.1-0.2,0.2-0.2,0.2c4,0,7.9,0,11.9,0c-0.1-0.1-0.2-0.2-0.2-0.2
					c-0.1,1.9,0,3.9,0.3,5.8c0.3,1.6,1,2.4,2.3,3.3c2.1,1.3,4.6,2.1,7,2.7c2.1,0.5,4.1,0.8,6,2c4.6,2.9,4.6,9.2,5.3,14
					c0.2,1.2,0.5,2.4,0.7,3.6c0.6,2.7,1.1,5.3,1.7,8c1.5,6.9,4.1,13.5,5.5,20.4c0.6,3.1,1,6.2,1.8,9.2c0.7,2.8,2.7,4.9,3.6,7.6
					C188.1,162.8,188.6,162.7,188.4,162.4z"/>
				<path class="st4" d="M173.3,110.2c-0.6-4.6-1.3-9.2-3.9-9.2c-2.5,0,0.4,7.3,1.9,9.8C172.9,113.2,173.6,113,173.3,110.2z"/>
				<path class="st4" d="M182.1,147.2c-0.8-4.4-2.5-12.1-3.8-11.8c-1.4,0.3,3.3,18.7,4.4,19.8C183.8,156.3,182.5,149.1,182.1,147.2z
					"/>
				<path class="st4" d="M183.8,157.7c-1.4,0.3-3.5,0.6-3.3,4.3c0.2,3.8,1.2,6.9,1.3,5.1c0.1-1.7,2.4,1.7,2.9-0.7s1,1.3,1.8-1.4
					s1.8,1.2,1.4-1.4C187.6,161,185,157.5,183.8,157.7z"/>
				<path class="st4" d="M177,128.1c-0.5-2.3-2.1-11.8-2.9-11.9c-0.8-0.2,0.1,8.2,1.2,10.8c1.1,2.6,2.1,5,1.7,1.4V128.1z"/>
				<path class="st4" d="M122.5,110.2c0.6-4.6,1.3-9.2,3.9-9.2c2.5,0-0.4,7.3-1.9,9.8C122.9,113.2,122.2,113,122.5,110.2z"/>
				<path class="st4" d="M113.7,147.2c0.8-4.4,2.5-12.1,3.8-11.8c1.4,0.3-3.3,18.7-4.4,19.8S113.3,149.1,113.7,147.2z"/>
				<path class="st4" d="M112,157.7c1.4,0.3,3.5,0.6,3.3,4.3c-0.2,3.8-1.2,6.9-1.3,5.1c-0.1-1.7-2.4,1.7-2.9-0.7s-1,1.3-1.8-1.4
					s-1.8,1.2-1.4-1.4C108.2,161,110.9,157.5,112,157.7z"/>
				<path class="st4" d="M118.8,128.1c0.5-2.3,2.1-11.8,2.9-11.9c0.8-0.2-0.1,8.2-1.2,10.8c-1.1,2.6-2.1,5-1.7,1.4
					C118.8,128.4,118.8,128.1,118.8,128.1z"/>
			</g>
			<g>
				<g>
					<path class="st6" d="M164.9,151.6c0,0,4,7.8,4.6,22.2c0,0,3.1,12.2,3.8,18.8c0,0-10.8,6.6-25.2,2.4c0,0-0.1-7.3,0-9.3
						c0,0-1.6-7.3-1.3-8.7c0,0-0.9,14.8-0.9,18.3c0,0-9.2,4.1-22.9-2.3c0,0-0.3-7.2,2.6-17c0,0,1.8-17.6,6-23.9
						C131.5,152,152.1,154,164.9,151.6z"/>
					<path class="st7" d="M164.5,151.6c3,5.9,3.9,13.1,4.4,19.6c0.2,3.1,1,5.9,1.7,9c0.5,2.2,1,4.5,1.4,6.7c0.1,0.6,1.2,5.4,0.9,5.6
						c-2.4,1.4-5.1,2.2-7.7,2.8c-2.7,0.6-5.5,0.8-8.3,0.8c-1.2,0-8.5-0.5-8.5-1.6c0-1.5,0-3.1,0-4.6c0-1.3,0.3-3.1,0.1-4.4
						c-0.6-2.7-1.6-5.9-1.3-8.6c-0.2,0-0.5,0.1-0.7,0.1c-0.2,2.8-0.3,5.6-0.5,8.4c-0.1,2-0.2,4.1-0.3,6.1c0,0.5-0.1,3.8,0,3.7
						c-2.9,1.2-6.4,1.3-9.5,1.1s-6-0.9-8.9-1.9c-0.5-0.2-3.9-1.1-3.9-1.8c0-0.6,0-1.3,0-1.9c0.1-2.2,0.4-4.5,0.7-6.7
						c0.4-2.7,1.6-5.5,1.8-8.2c0.3-3,0.8-6,1.3-8.9c0.8-4.5,1.8-9.2,3.8-13.4c0.6-1.3,0.1-1.3,1.5-1.2c1.6,0.1,3.2,0.2,4.7,0.3
						c9.2,0.5,18.6,0.8,27.7-0.9c0.3-0.1,0.6-0.5,0.1-0.4c-10.8,2-22.4,1.5-33.3,0.4c-0.2,0-0.4,0.1-0.4,0.2
						c-4,6.1-4.8,14.6-5.7,21.7c-0.8,6.5-3.1,12.7-2.8,19.4c0,0,0,0.1,0.1,0.1c6.8,3.1,16.1,5.4,23.3,2.3c0.1,0,0.2-0.1,0.2-0.2
						c0-6.1,0.5-12.2,0.9-18.3c0-0.3-0.7-0.2-0.7,0.1c-0.3,2.8,0.8,6,1.3,8.7c0.3,1.6-0.1,3.7,0,5.4c0,1.3,0,2.6,0,3.9
						c0,0.1,0,0.1,0.1,0.2c8.2,2.3,18.1,2.1,25.6-2.4c0.1,0,0.1-0.1,0.1-0.2c-0.9-7.5-3.4-14.7-4-22.2c-0.5-6.2-1.5-13.1-4.4-18.7
						C165.1,151.2,164.4,151.4,164.5,151.6z"/>
				</g>
				<g>
					<path class="st8" d="M169.5,173.8c-0.6-14.4-4.6-22.2-4.6-22.2c-12.8,2.4-33.4,0.4-33.4,0.4c-4.2,6.3-6,23.9-6,23.9
						c-2.9,9.7-2.6,17-2.6,17c13.7,6.4,22.9,2.3,22.9,2.3c0-3.2,0.7-15.5,0.9-17.9c0-0.2,0-0.3,0-0.4c0,0,0,0.1,0,0.4
						c0,2,1.4,8.3,1.4,8.3c-0.1,2,0,9.3,0,9.3c14.4,4.2,25.2-2.4,25.2-2.4C172.5,185.9,169.5,173.8,169.5,173.8z M160.8,195.3
						c-6.5,0.4-10.2-10.4-11.1-14.7c-0.8-4.2,0.9-3.4,4.5-7.1c3.5-3.7-3.3,3.3-11.3,2.5c-7.9-0.8-4.3,1.2-2.4,2.4
						c1.9,1.3,1.6,10.3,0.4,14.3c-1.2,4-12.4,1.9-14.4,0.2c-3.1-2.5-1.3-11.3-0.3-8c1,3.2,1.5,0.5,0.8-5.6
						c-0.8-6.1,2.1-18.2,2.9-16.2c0.9,2.1,1.1-0.4,1.9-2.2c0.7-1.8,2.3-5,2.9-3.8c0.7,1.1,0,2.7,1.4,0.9c1.4-1.9,6.6-0.8,9-0.9
						c5.6-0.1,8.6-0.2,10-0.4s3.1,1.3,3.6,2.7s1.3-0.4,0.6-2.3c-0.7-1.9,5.3-1.4,7.1,3.2c1.7,4.6,2.7,19.9,1.8,26.4s1.3,0.2,1.9-1.3
						c0.6-1.4,1.6,3.7,0.9,5.3C170.3,192.4,167.3,194.9,160.8,195.3z"/>
				</g>
				<path class="st7" d="M142.9,177.5c2.6,0.2,5.4-0.3,7.7-1.5c0.4-0.2,0-0.8-0.4-0.6c-2.2,1.2-4.9,1.7-7.4,1.4
					C142.4,176.7,142.4,177.4,142.9,177.5L142.9,177.5z"/>
				<g>
					<path class="st7" d="M169.7,184.7c0.1-4.3,0.4-8.7,0-13c0-0.2-0.6-0.3-0.6,0c0.4,4.3,0.1,8.7,0,12.9
						C169.1,184.9,169.7,185,169.7,184.7L169.7,184.7z"/>
				</g>
				<g>
					<path class="st7" d="M150,191.4c-0.8-2-1.4-4.2-1.7-6.4c0-0.3-0.6-0.4-0.5-0.1c0.3,2.2,0.9,4.4,1.7,6.5
						C149.6,191.7,150.1,191.7,150,191.4L150,191.4z"/>
				</g>
				<g>
					<path class="st7" d="M126.5,182.5c-0.7-3.9-0.5-8,0-12c0-0.3-0.5-0.5-0.5-0.2c-0.5,4-0.7,8.1,0,12.1
						C126,182.7,126.6,182.8,126.5,182.5L126.5,182.5z"/>
				</g>
				<g>
					<path class="st6" d="M146.7,177.3c0-0.3,0-0.4,0-0.4C146.7,177,146.7,177.1,146.7,177.3z"/>
					<path class="st7" d="M147.1,177.3c0-0.1,0-0.3,0-0.4c0-0.4-0.6-0.3-0.7,0c0,0.1,0,0.3,0,0.4
						C146.4,177.7,147.1,177.6,147.1,177.3c0-0.1,0-0.3,0-0.4c-0.2,0-0.5,0-0.7,0c0,0.1,0,0.3,0,0.4
						C146.4,177.7,147.1,177.6,147.1,177.3z"/>
				</g>
				<path class="st7" d="M164.5,151.6c3,5.9,3.9,13.1,4.4,19.6c0.2,3.1,1,5.9,1.7,9c0.5,2.2,1,4.5,1.4,6.7c0.1,0.6,1.2,5.4,0.9,5.6
					c-2.4,1.4-5.1,2.2-7.7,2.8c-2.7,0.6-5.5,0.8-8.3,0.8c-1.2,0-8.5-0.5-8.5-1.6c0-1.5,0-3.1,0-4.6c0-1.3,0.3-3.1,0.1-4.4
					c-0.6-2.7-1.6-5.9-1.3-8.6c-0.2,0-0.5,0.1-0.7,0.1c-0.2,2.8-0.3,5.6-0.5,8.4c-0.1,2-0.2,4.1-0.3,6.1c0,0.5-0.1,3.8,0,3.7
					c-2.9,1.2-6.4,1.3-9.5,1.1s-6-0.9-8.9-1.9c-0.5-0.2-3.9-1.1-3.9-1.8c0-0.6,0-1.3,0-1.9c0.1-2.2,0.4-4.5,0.7-6.7
					c0.4-2.7,1.6-5.5,1.8-8.2c0.3-3,0.8-6,1.3-8.9c0.8-4.5,1.8-9.2,3.8-13.4c0.6-1.3,0.1-1.3,1.5-1.2c1.6,0.1,3.2,0.2,4.7,0.3
					c9.2,0.5,18.6,0.8,27.7-0.9c0.3-0.1,0.6-0.5,0.1-0.4c-10.8,2-22.4,1.5-33.3,0.4c-0.2,0-0.4,0.1-0.4,0.2
					c-4,6.1-4.8,14.6-5.7,21.7c-0.8,6.5-3.1,12.7-2.8,19.4c0,0,0,0.1,0.1,0.1c6.8,3.1,16.1,5.4,23.3,2.3c0.1,0,0.2-0.1,0.2-0.2
					c0-6.1,0.5-12.2,0.9-18.3c0-0.3-0.7-0.2-0.7,0.1c-0.3,2.8,0.8,6,1.3,8.7c0.3,1.6-0.1,3.7,0,5.4c0,1.3,0,2.6,0,3.9
					c0,0.1,0,0.1,0.1,0.2c8.2,2.3,18.1,2.1,25.6-2.4c0.1,0,0.1-0.1,0.1-0.2c-0.9-7.5-3.4-14.7-4-22.2c-0.5-6.2-1.5-13.1-4.4-18.7
					C165.1,151.2,164.4,151.4,164.5,151.6z"/>
				<g>
					<path class="st6" d="M165,153.8c1.3-0.4,0.9-1.8,0.5-3c-0.6-1.7,0.3-2.1-0.7-3.3s-3.5,2.1-16.7,2.1s-15.2-1.6-16.4-2.5
						c0,0-1.2,0-0.6,2.9c0.3,1.6-1.5,2.4,0.3,3.9C133.1,155.6,144.2,159.4,165,153.8z"/>
					<path class="st7" d="M165.2,154.1c1.5-0.7,1.1-2.1,0.6-3.4c-0.4-1.2,0.2-2.9-1-3.7c-1.1-0.7-3.8,0.8-4.9,1
						c-5.6,1.4-11.6,1.3-17.4,1.1c-3.1-0.1-6.8-0.2-9.7-1.7c-1-0.5-2.2-1.1-2.2,0.8c-0.1,1.3,0.2,2.5-0.3,3.7
						c-0.2,0.6-0.1,1.1,0.2,1.7c0.3,0.7,1.3,1.2,2,1.5c6.8,3.1,15.5,2.2,22.6,1.1C158.5,155.8,161.8,155,165.2,154.1
						c0.4-0.1,0.2-0.8-0.3-0.6c-9,2.4-18.6,4-27.9,2.3c-1.8-0.3-3.7-0.8-5.2-1.8c-1-0.7-0.8-1.8-0.4-2.7c0.3-0.8,0-1.7-0.1-2.5
						c-0.1-1.7,0.4-1.1,1.2-0.7c1.6,0.9,3.6,1.2,5.5,1.4c4.9,0.6,10,0.6,15,0.3c3.2-0.2,6.3-0.8,9.4-1.7c0.6-0.2,1.3-0.5,2-0.5
						c0.8,0,0.6,1.5,0.6,2c0,1,1.4,3.2-0.1,3.8C164.4,153.7,164.8,154.3,165.2,154.1z"/>
				</g>
				<g>
					<path class="st8" d="M165.5,150.8c-0.6-1.7,0.3-2.1-0.7-3.3s-3.5,2.1-16.7,2.1s-15.2-1.6-16.4-2.5c0,0-1.2,0-0.6,2.9
						c0.3,1.6-1.5,2.4,0.3,3.9c1.7,1.6,12.8,5.4,33.6-0.2C166.3,153.5,165.9,152.1,165.5,150.8z M158.7,154.4
						c-2.6,0.6-8.8,1.8-14,1.8s-9.8-0.5-10.5-3.4c-0.1-0.4-0.3-1.6,0-2c0.5-0.5,0.5,0.9,1.1,0.8c0.4-0.2,0.3-0.7,0.6-1
						c0.4-0.4,1.3-0.2,1.8-0.1c0.5,0.1,1.5,0.1,1.8,0.5c0.4,0.4,0.6,1,1.1,1.3c0.4,0.1,0.1-1.2,0.5-1.1c0.3,0.1,0.5,1.6,0.5,1.9
						c0.1,0.5,0.3,0.5,0.5,0.4c0.9-0.4,0.2-1.8,0.6-2.5c0.2-0.4,0.5-0.3,0.9-0.3c0.7,0,1.4-0.1,2.2-0.1c0.6,0,1.2-0.1,1.8,0.1
						c0.5,0.1,0.5,0.4,0.7,0.9c0.2,0.3,0.4,0.6,0.9,0.5c0.4-0.1,0.3-0.5,0.4-0.9c0.1-0.5,0.4-0.5,0.9-0.5c1.1-0.2,2.2-0.2,3.3-0.4
						c0.9-0.2,1.9-0.4,2.8-0.5c0.3,0,1-0.2,1.3,0c0.5,0.2,0.2,1.1,0.8,1.4c0.1,0.1,0.1,0.1,0.3,0c0.4-0.1,0.6-1.2,0.6-1.4
						s0.6-0.6,0.8,0.2s0.7,0.2,0.7-0.3c0-0.4,0.6-0.1,0.6,1.4C161.9,152.6,161.3,153.8,158.7,154.4z"/>
				</g>
				<g>
					<path class="st7" d="M133.6,148.1c-0.3-0.1-0.7,0.1-0.7,0.4c-0.1,0.5,0.1,1.1,0.2,1.6c0.1,0.4,0.1,0.8,0,1.2
						c0,0.2,0.3,0.1,0.3,0c0-0.4,0-0.8,0-1.3c0-0.3-0.5-1.7,0.1-1.6C133.6,148.4,133.8,148.1,133.6,148.1L133.6,148.1z"/>
					<path class="st7" d="M135.3,148.6c-0.2-0.1-0.4,0-0.5,0.1c-0.3,0.2-0.2,0.9-0.2,1.2c0,0.1,0.3,0,0.3-0.1c0-0.3-0.1-0.7,0.1-1.1
						c0.1-0.1,0.2-0.1,0-0.1l0,0C135.1,148.6,135.2,148.6,135.3,148.6C135.2,148.7,135.3,148.6,135.3,148.6L135.3,148.6z"/>
					<path class="st7" d="M142.1,149.5c-0.1,0.2-0.2,0.4-0.2,0.6c-0.1,0.9,0,1.8,0.2,2.6c0,0.2,0.4,0.1,0.3-0.1
						c-0.1-0.8-0.2-1.6-0.2-2.4c0-0.2,0.1-0.5,0.1-0.6C142.5,149.4,142.2,149.4,142.1,149.5L142.1,149.5z"/>
					<path class="st7" d="M140.5,149.4c-0.1,0.1-0.2,0.2-0.2,0.3c-0.1,0.5,0,1.1,0.1,1.6c0,0.1,0.4,0,0.3-0.1
						c-0.1-0.5-0.1-0.9-0.1-1.4c0-0.1,0-0.2,0.1-0.3c0-0.1,0,0,0,0C140.8,149.4,140.6,149.3,140.5,149.4L140.5,149.4z"/>
					<path class="st7" d="M148.7,149.7c0.4,0.2,0.3,1.1,0.3,1.5c0,0.1,0.3,0.1,0.3,0c0-0.5,0.1-1.3-0.4-1.6
						C148.8,149.5,148.5,149.7,148.7,149.7L148.7,149.7z"/>
					<path class="st7" d="M158.5,148.8c0.7,0.3,0.6,1.3,0.5,1.9c0,0,0.3,0,0.3-0.1c0.1-0.6,0.2-1.6-0.5-1.9
						C158.8,148.6,158.5,148.8,158.5,148.8L158.5,148.8z"/>
					<path class="st7" d="M162.7,147.8c0.5,0,1.1,0.1,1.3,0.7c0.1,0.4,0,1,0.1,1.4c0,0.5,0.1,0.9,0.2,1.3c0,0.1,0.4,0,0.3-0.1
						c-0.1-0.5-0.2-1-0.3-1.5c0-0.5,0.1-1.1-0.2-1.5s-1-0.5-1.4-0.4C162.5,147.6,162.4,147.8,162.7,147.8L162.7,147.8z"/>
					<path class="st7" d="M161.5,148.1c0.8-0.1,0.8,0.8,0.8,1.3c0.1,0.9,0.3,1.7,0.5,2.6c0,0.2,0.4,0.1,0.3-0.1
						c-0.1-0.5-0.3-1.1-0.4-1.6c-0.1-0.6,0-1.3-0.2-1.9c-0.1-0.4-0.6-0.6-1-0.6C161.4,147.9,161.3,148.2,161.5,148.1L161.5,148.1z"
						/>
					<path class="st7" d="M159.8,148.6c-0.1,0,0.1,0,0.1,0c0.1,0,0.2,0.1,0.3,0.1c0.3,0.2,0.4,0.6,0.4,1c0,0.2,0.3,0.1,0.3,0
						c0.1-0.7-0.3-1.2-1-1.3C159.8,148.3,159.6,148.5,159.8,148.6L159.8,148.6z"/>
					<path class="st7" d="M132.8,155c-1,1.7-1.9,3.6-2.4,5.5c0,0.1,0.3,0.1,0.3,0c0.5-1.9,1.4-3.7,2.4-5.4
						C133.2,154.8,132.9,154.9,132.8,155L132.8,155z"/>
					<path class="st7" d="M136.6,156.1c-0.7,0.6-1.2,1.5-1.4,2.3c0,0.1,0.3,0,0.3-0.1c0.3-0.8,0.7-1.7,1.4-2.3
						C137,156,136.7,156,136.6,156.1L136.6,156.1z"/>
					<path class="st7" d="M157,155.7c0.7,0.5,1.2,1.6,1.6,2.4c0.1,0.2,0.4,0.1,0.3-0.1c-0.4-0.8-0.9-1.9-1.6-2.5
						C157.1,155.4,156.8,155.6,157,155.7L157,155.7z"/>
				</g>
				<path class="st7" d="M165.2,154.1c1.5-0.7,1.1-2.1,0.6-3.4c-0.4-1.2,0.2-2.9-1-3.7c-1.1-0.7-3.8,0.8-4.9,1
					c-5.6,1.4-11.6,1.3-17.4,1.1c-3.1-0.1-6.8-0.2-9.7-1.7c-1-0.5-2.2-1.1-2.2,0.8c-0.1,1.3,0.2,2.5-0.3,3.7
					c-0.2,0.6-0.1,1.1,0.2,1.7c0.3,0.7,1.3,1.2,2,1.5c6.8,3.1,15.5,2.2,22.6,1.1C158.5,155.8,161.8,155,165.2,154.1
					c0.4-0.1,0.2-0.8-0.3-0.6c-9,2.4-18.6,4-27.9,2.3c-1.8-0.3-3.7-0.8-5.2-1.8c-1-0.7-0.8-1.8-0.4-2.7c0.3-0.8,0-1.7-0.1-2.5
					c-0.1-1.7,0.4-1.1,1.2-0.7c1.6,0.9,3.6,1.2,5.5,1.4c4.9,0.6,10,0.6,15,0.3c3.2-0.2,6.3-0.8,9.4-1.7c0.6-0.2,1.3-0.5,2-0.5
					c0.8,0,0.6,1.5,0.6,2c0,1,1.4,3.2-0.1,3.8C164.4,153.7,164.8,154.3,165.2,154.1z"/>
				<path class="st9" d="M163,168.1c-4.2,6-7.1,9.6-6.6,12.5s2.9,12.2,6.2,12.2c3.3-0.1,4.2-4.4,4-11.9
					C166.6,173.4,167.3,162.1,163,168.1z"/>
				<path class="st9" d="M156.4,162.7c-2.6,2-7.5,6.7-14.2,8.2s-6,2.9-1.8,3.5s11.7,0,16-3.9C160.7,166.5,160.8,159.2,156.4,162.7z"
					/>
				<path class="st9" d="M136.1,178.9c-3.7-3.5-6.8-8-6.4-2c0.4,6,2.2,15.2,5,15.9s4.5-2.9,4.1-8.4
					C138.4,178.8,137.6,180.4,136.1,178.9z"/>
				<path class="st9" d="M138.6,151.6c-0.8-0.2-0.2,3.8,0.6,3.8C140.1,155.4,139.8,151.8,138.6,151.6z"/>
				<path class="st9" d="M144,151.6c-0.9-0.1-0.5,3.8,0.4,3.8s3.9,0.4,3.8-1.4c-0.1-1.8,0-2.7-1.4-2.7
					C145.2,151.2,144.6,151.6,144,151.6z"/>
				<path class="st9" d="M152.2,151.1c-1.1,0.3-2,0.5-1.8,1.7s0,2.3,1.1,2.2c1.2-0.1,6.1-0.4,6.3-1.3c0.2-0.8-0.1-3.2-1.2-3.1
					C155.6,150.7,153.2,150.9,152.2,151.1z"/>
				<path class="st9" d="M159.9,151.2c-0.1,1.1,0.1,2.4,0.4,0.8C160.7,150.4,159.9,150.1,159.9,151.2z"/>
			</g>
		</g>
	</g>
</g>
<g id="chess">
	<polygon id="chest" class="st10" points="131,101 166.5,101 161.3,124.7 133.7,125.6 	"/>
	<path class="st11" d="M136.9,119.6c0,0.3-0.3,0.5-0.8,0.5c-0.4,0-0.8-0.2-0.8-0.5s0.3-0.5,0.8-0.5
		C136.6,119.1,136.9,119.3,136.9,119.6z"/>
	<path class="st11" d="M161.3,119.6c0,0.3-0.3,0.5-0.8,0.5c-0.4,0-0.8-0.2-0.8-0.5s0.3-0.5,0.8-0.5S161.3,119.3,161.3,119.6z"/>
</g>
<g id="ARM">
	<g>
		<g>
			<g>
				<g>
					<path class="st0" d="M166.6,121.1c0.7,2.2,1.6,4.5,1.9,5.4c0.6,1.8,2.1,5.2,2.8,10.4c0.6,5.2,4.9,16.3,5.5,18.3
						s0.2,3.1,0.2,3.1c-2.6,4-1.8,6.9-2.1,9.2s-1.8,4.5-1.5,5.1c0.5,1.2,2.9,0.5,3.5-1.3s1.5-4.4,1.8-4.4c0.3,0.1,1.1,2.7,1.4,4.7
						c0.3,2-0.2,4.6-0.5,6.3s0.4,4.3,1.5,2.6c0.2-0.3,0.4-0.8,0.6-1.2c0.3-0.2,0.5-0.5,0.8-0.8c0.2,0.3,0.5,0.5,1.2,0.2
						c0.6-0.3,1.3-1.3,1.9-2.6c0.2,0.3,0.4,0.5,0.8,0.4c0.9-0.4,1.8-4.4,2-5.8c0.2-1.4,0.2-6.7-0.3-8.3s-1.5-2.9-2.8-5.3
						c-1.3-2.4-1.5-6.1-2.9-12.8c-1.4-6.8-3.5-12-4.6-16c-1-4-2.1-9.9-2.7-12c-0.5-2-0.4-2.9-1.5-9.5c-0.7-4.2-2.8-6.4-4.9-7.6"/>
					<path class="st1" d="M188.8,166.8c0-1.5,0-3.1-0.4-4.6c-0.8-2.3-2.5-4.2-3.3-6.6c-0.8-2.1-1-4.5-1.4-6.7
						c-0.6-3.5-1.3-6.9-2.3-10.3c-0.8-2.8-1.7-5.6-2.6-8.5c-1.5-4.8-2.2-9.7-3.4-14.6c-1-4-0.6-8.4-2.2-12.2c-0.9-2-2.3-3.6-4.2-4.7
						c0,0.2,0,0.4,0,0.5c0.1,0.1,0.3,0.1,0.4,0.2c4.6,2.9,4.6,9.2,5.3,14c0.2,1.2,0.5,2.4,0.7,3.6c0.6,2.7,1.1,5.3,1.7,8
						c1.5,6.9,4.1,13.5,5.5,20.4c0.6,3.1,1,6.2,1.8,9.2c0.7,2.8,2.7,4.9,3.6,7.6c0.7,2.3,0.5,5,0.4,7.3c-0.1,1.1-0.3,2.1-0.5,3.1
						c-0.1,0.4-1.1,4.1-1.9,3.1c-0.1-0.1-0.3-0.2-0.4,0c-0.2,0.5-1.8,3.6-2.7,2.4c-0.1-0.1-0.3-0.2-0.4,0c-0.5,0.6-0.8,0.9-1.1,1.6
						c-0.1,0.2-0.6,1.3-1,0.9c-0.2-0.2-0.3-0.6-0.4-0.9c-0.3-1.4,0.2-3,0.4-4.4c0.3-2.7,0.1-5.5-1-8.1c-0.8-1.8-1.5,0.9-1.8,1.6
						c-0.5,1.4-0.8,3-2.2,3.7c-0.5,0.3-2,0.4-1.7-0.6c0.2-0.7,0.5-1.3,0.8-1.9c1-2.4,0.6-4.8,1-7.3c0.3-1.6,0.9-3.1,1.8-4.4
						c0.3-0.4,0.2-1.3,0.1-1.8c-0.2-1.7-1-3.3-1.5-4.9c-0.8-2.3-1.6-4.6-2.3-6.9c-0.6-2-1.2-3.9-1.6-5.9c-0.5-2.2-0.7-4.5-1.3-6.8
						c-1-4-2.6-7.8-4-11.7c0,0.4,0,0.8-0.1,1.3c1.5,4.3,3.3,8.6,4.1,13.1c0.5,2.4,0.8,4.8,1.4,7.2c0.7,2.5,1.5,4.9,2.3,7.3
						c0.6,1.8,1.3,3.6,1.9,5.4c0.3,0.9,0.6,1.9,0.6,2.9c0,1.1-1,2.2-1.4,3.2c-0.9,2.3-0.5,4.7-0.9,7.1c-0.2,1.4-0.8,2.6-1.3,3.9
						c-0.2,0.6-0.2,1.1,0.3,1.5c0.6,0.5,1.6,0.1,2.2-0.2c1-0.5,1.3-1.6,1.7-2.6c0.2-0.6,0.5-1.3,0.7-1.9c0.1-0.3,0.3-0.6,0.4-0.9
						c0.1-0.3,0.1-0.4,0.2-0.1c0.7,1.3,1,3,1.2,4.5c0.2,1.7-0.1,3.5-0.4,5.3c-0.2,1.1-0.3,2.2,0.1,3.2c0.2,0.5,0.6,1,1.1,0.8
						c0.3-0.1,0.5-0.4,0.7-0.6c0.4-0.6,0.8-1.2,1.2-1.8c1.1,1.1,2.6-1.3,3.1-2.3c1.6,1.4,2.7-4.6,2.9-5.5
						C188.8,169.6,188.8,168.2,188.8,166.8z"/>
				</g>
				<path class="st5" d="M181.2,180.5c-0.1,0.1-0.2,0.2-0.2,0.3l0,0c0.2-0.1,0.5-0.7,0.9-1.5l0,0
					C181.6,179.8,181.4,180.2,181.2,180.5z"/>
				<path class="st2" d="M183.7,156.2c-0.7-0.4-2.7,0.4-3.6-1.3c-3.8-7.1-5.2-14.9-5-18s0.2-3.3-1.6-7.5c-1.7-4.2-1.4-11.1-3.1-13.8
					c-1.7-2.7-2.5-7.7-2.6-9.3v-0.1c-0.2,1.3-0.4,2.7-0.5,4c-0.2,3.6-0.6,7.2-0.7,10.8c0.7,2.2,1.6,4.5,1.9,5.4
					c0.6,1.8,2.1,5.2,2.8,10.4c0.6,5.2,4.9,16.3,5.5,18.3s0.2,3.1,0.2,3.1c-2.6,4-1.8,6.9-2.1,9.2s-1.8,4.5-1.5,5.1
					c0.3,0.7,1.3,0.7,2.2,0.2c-1.2,0.6-2-0.1-1.5-0.8c0.5-0.8,1.5-2,1.8-4.1s0.7-5.3,2.2-8.3C179.5,156.8,184.4,156.7,183.7,156.2z"
					/>
				<path class="st2" d="M187.4,166.7c-0.4-1.4-0.6-0.6-0.6,0.4s0.4,3,0,5.3c-0.5,2.3-1.5,2.3-1.3,1.3s0.3-3.4,0-5.3
					c-0.3-1.9-0.8-1.7-0.8-0.8s0.3,3.3-0.2,6.1c-0.6,2.8-0.8-3.8-1.2-5.2s-1-1.6-0.7,0.2s0.4,3.3,0.2,6.1c-0.1,1.6-0.5,3.3-1,4.5
					c0.2-0.2,0.5-0.5,0.7-0.8c0.2,0.3,0.5,0.5,1.2,0.2c0.6-0.3,1.3-1.3,1.9-2.6c0.2,0.3,0.4,0.5,0.8,0.4c0.9-0.4,1.8-4.4,2-5.8
					c0-0.2,0-0.5,0.1-0.9C188.1,173.7,187.8,168,187.4,166.7z"/>
				<path class="st2" d="M180.3,179.3c0-1,0.8-4.3,0.9-6.3c0.1-2-0.9-4.8-1.6-6.4c-0.7-1.7-1.2,0-1.4,1.2l0,0
					c0.2-0.5,0.4-0.8,0.5-0.8c0.3,0.1,1.1,2.7,1.4,4.7c0.3,2-0.2,4.6-0.5,6.3c-0.3,1.6,0.3,4,1.3,2.9
					C180.5,180.9,180.3,180.3,180.3,179.3z"/>
				<g>
					<path class="st1" d="M182.2,168.1c0.3,1.8,0.6,3.7,0.5,5.6c-0.1,2.2-0.4,4.9-1.7,6.8c-0.2,0.3,0.2,0.5,0.4,0.2
						c1.2-1.9,1.5-4.3,1.7-6.4c0.2-2.1,0-4.2-0.4-6.3C182.6,167.6,182.1,167.8,182.2,168.1L182.2,168.1z"/>
					<path class="st1" d="M184.4,168c-0.1,3.8,0.3,8.3-2.8,11.1c-0.2,0.2,0.1,0.5,0.3,0.3c3.2-2.9,2.8-7.6,2.9-11.5
						C184.9,167.7,184.4,167.7,184.4,168L184.4,168z"/>
					<path class="st1" d="M186.5,166.3c0.1,1.9,0.2,3.8,0,5.6c-0.1,1.4-0.5,2.7-1.1,3.9c-0.2,0.5-1.7,3.6-2.7,2.4
						c-0.2-0.2-0.5,0.1-0.3,0.3c1.7,2,3.8-3.2,4.1-4.1c0.9-2.6,0.7-5.5,0.5-8.2C187,166,186.5,166,186.5,166.3L186.5,166.3z"/>
					<path class="st1" d="M166.7,118.9c0-0.3,0.1-0.6,0.1-0.9c0.2-1.2,0.2-2.3,0.2-3.5C166.9,115.9,166.8,117.4,166.7,118.9z"/>
				</g>
				<path class="st1" d="M188.8,166.8c0-1.5,0-3.1-0.4-4.6c-0.8-2.3-2.5-4.2-3.3-6.6c-0.8-2.1-1-4.5-1.4-6.7
					c-0.6-3.5-1.3-6.9-2.3-10.3c-0.8-2.8-1.7-5.6-2.6-8.5c-1.5-4.8-2.2-9.7-3.4-14.6c-1-4-0.6-8.4-2.2-12.2c-0.9-2-2.3-3.6-4.2-4.7
					c0,0.2,0,0.4,0,0.5c0.1,0.1,0.3,0.1,0.4,0.2c4.6,2.9,4.6,9.2,5.3,14c0.2,1.2,0.5,2.4,0.7,3.6c0.6,2.7,1.1,5.3,1.7,8
					c1.5,6.9,4.1,13.5,5.5,20.4c0.6,3.1,1,6.2,1.8,9.2c0.7,2.8,2.7,4.9,3.6,7.6c0.7,2.3,0.5,5,0.4,7.3c-0.1,1.1-0.3,2.1-0.5,3.1
					c-0.1,0.4-1.1,4.1-1.9,3.1c-0.1-0.1-0.3-0.2-0.4,0c-0.2,0.5-1.8,3.6-2.7,2.4c-0.1-0.1-0.3-0.2-0.4,0c-0.5,0.6-0.8,0.9-1.1,1.6
					c-0.1,0.2-0.6,1.3-1,0.9c-0.2-0.2-0.3-0.6-0.4-0.9c-0.3-1.4,0.2-3,0.4-4.4c0.3-2.7,0.1-5.5-1-8.1c-0.8-1.8-1.5,0.9-1.8,1.6
					c-0.5,1.4-0.8,3-2.2,3.7c-0.5,0.3-2,0.4-1.7-0.6c0.2-0.7,0.5-1.3,0.8-1.9c1-2.4,0.6-4.8,1-7.3c0.3-1.6,0.9-3.1,1.8-4.4
					c0.3-0.4,0.2-1.3,0.1-1.8c-0.2-1.7-1-3.3-1.5-4.9c-0.8-2.3-1.6-4.6-2.3-6.9c-0.6-2-1.2-3.9-1.6-5.9c-0.5-2.2-0.7-4.5-1.3-6.8
					c-1-4-2.6-7.8-4-11.7c0,0.4,0,0.8-0.1,1.3c1.5,4.3,3.3,8.6,4.1,13.1c0.5,2.4,0.8,4.8,1.4,7.2c0.7,2.5,1.5,4.9,2.3,7.3
					c0.6,1.8,1.3,3.6,1.9,5.4c0.3,0.9,0.6,1.9,0.6,2.9c0,1.1-1,2.2-1.4,3.2c-0.9,2.3-0.5,4.7-0.9,7.1c-0.2,1.4-0.8,2.6-1.3,3.9
					c-0.2,0.6-0.2,1.1,0.3,1.5c0.6,0.5,1.6,0.1,2.2-0.2c1-0.5,1.3-1.6,1.7-2.6c0.2-0.6,0.5-1.3,0.7-1.9c0.1-0.3,0.3-0.6,0.4-0.9
					c0.1-0.3,0.1-0.4,0.2-0.1c0.7,1.3,1,3,1.2,4.5c0.2,1.7-0.1,3.5-0.4,5.3c-0.2,1.1-0.3,2.2,0.1,3.2c0.2,0.5,0.6,1,1.1,0.8
					c0.3-0.1,0.5-0.4,0.7-0.6c0.4-0.6,0.8-1.2,1.2-1.8c1.1,1.1,2.6-1.3,3.1-2.3c1.6,1.4,2.7-4.6,2.9-5.5
					C188.8,169.6,188.8,168.2,188.8,166.8z"/>
				<path class="st4" d="M173.2,110.1c-0.6-4.6-1.3-9.2-3.9-9.2c-0.3,0-0.5,0.1-0.7,0.3c-0.1,0.6-0.2,1.2-0.3,1.8
					c0.3,2.4,1.9,6.1,2.9,7.7C172.8,113.1,173.5,112.9,173.2,110.1z"/>
				<path class="st4" d="M182,147.1c-0.8-4.4-2.5-12.1-3.8-11.8c-1.4,0.3,3.3,18.7,4.4,19.8C183.7,156.2,182.4,149,182,147.1z"/>
				<path class="st4" d="M183.7,157.6c-1.4,0.3-3.5,0.6-3.3,4.3c0.2,3.8,1.2,6.9,1.3,5.1c0.1-1.7,2.4,1.7,2.9-0.7s1,1.3,1.8-1.4
					s1.8,1.2,1.4-1.4C187.5,160.9,184.8,157.4,183.7,157.6z"/>
				<path class="st4" d="M176.9,128c-0.5-2.3-2.1-11.8-2.9-11.9c-0.8-0.2,0.1,8.2,1.2,10.8c1.1,2.6,2.1,5,1.7,1.4V128z"/>
			</g>
		</g>
	</g>
	<g>
		<g>
			<g>
				<g>
					<path class="st0" d="M129.1,121.1c-0.7,2.2-1.6,4.5-1.9,5.4c-0.6,1.8-2.1,5.2-2.8,10.4c-0.6,5.2-4.9,16.3-5.5,18.3
						s-0.2,3.1-0.2,3.1c2.6,4,1.8,6.9,2.1,9.2c0.3,2.3,1.8,4.5,1.5,5.1c-0.5,1.2-2.9,0.5-3.5-1.3s-1.5-4.4-1.8-4.4
						c-0.3,0.1-1.1,2.7-1.4,4.7s0.2,4.6,0.5,6.3s-0.4,4.3-1.5,2.6c-0.2-0.3-0.4-0.8-0.6-1.2c-0.3-0.2-0.5-0.5-0.8-0.8
						c-0.2,0.3-0.5,0.5-1.2,0.2c-0.6-0.3-1.3-1.3-1.9-2.6c-0.2,0.3-0.4,0.5-0.8,0.4c-0.9-0.4-1.8-4.4-2-5.8
						c-0.2-1.4-0.2-6.7,0.3-8.3s1.5-2.9,2.8-5.3c1.3-2.4,1.5-6.1,2.9-12.8c1.4-6.8,3.5-12,4.6-16c1-4,2.1-9.9,2.7-12
						c0.5-2,0.4-2.9,1.5-9.5c0.7-4.2,2.8-6.4,4.9-7.6"/>
					<path class="st1" d="M106.9,166.8c0-1.5,0-3.1,0.4-4.6c0.8-2.3,2.5-4.2,3.3-6.6c0.8-2.1,1-4.5,1.4-6.7
						c0.6-3.5,1.3-6.9,2.3-10.3c0.8-2.8,1.7-5.6,2.6-8.5c1.5-4.8,2.2-9.7,3.4-14.6c1-4,0.6-8.4,2.2-12.2c0.9-2,2.3-3.6,4.2-4.7
						c0,0.2,0,0.4,0,0.5c-0.1,0.1-0.3,0.1-0.4,0.2c-4.6,2.9-4.6,9.2-5.3,14c-0.2,1.2-0.5,2.4-0.7,3.6c-0.6,2.7-1.1,5.3-1.7,8
						c-1.5,6.9-4.1,13.5-5.5,20.4c-0.6,3.1-1,6.2-1.8,9.2c-0.7,2.8-2.7,4.9-3.6,7.6c-0.7,2.3-0.5,5-0.4,7.3c0.1,1.1,0.3,2.1,0.5,3.1
						c0.1,0.4,1.1,4.1,1.9,3.1c0.1-0.1,0.3-0.2,0.4,0c0.2,0.5,1.8,3.6,2.7,2.4c0.1-0.1,0.3-0.2,0.4,0c0.5,0.6,0.8,0.9,1.1,1.6
						c0.1,0.2,0.6,1.3,1,0.9c0.2-0.2,0.3-0.6,0.4-0.9c0.3-1.4-0.2-3-0.4-4.4c-0.3-2.7-0.1-5.5,1-8.1c0.8-1.8,1.5,0.9,1.8,1.6
						c0.5,1.4,0.8,3,2.2,3.7c0.5,0.3,2,0.4,1.7-0.6c-0.2-0.7-0.5-1.3-0.8-1.9c-1-2.4-0.6-4.8-1-7.3c-0.3-1.6-0.9-3.1-1.8-4.4
						c-0.3-0.4-0.2-1.3-0.1-1.8c0.2-1.7,1-3.3,1.5-4.9c0.8-2.3,1.6-4.6,2.3-6.9c0.6-2,1.2-3.9,1.6-5.9c0.5-2.2,0.7-4.5,1.3-6.8
						c1-4,2.6-7.8,4-11.7c0,0.4,0,0.8,0.1,1.3c-1.5,4.3-3.3,8.6-4.1,13.1c-0.5,2.4-0.8,4.8-1.4,7.2c-0.7,2.5-1.5,4.9-2.3,7.3
						c-0.6,1.8-1.3,3.6-1.9,5.4c-0.3,0.9-0.6,1.9-0.6,2.9c0,1.1,1,2.2,1.4,3.2c0.9,2.3,0.5,4.7,0.9,7.1c0.2,1.4,0.8,2.6,1.3,3.9
						c0.2,0.6,0.2,1.1-0.3,1.5c-0.6,0.5-1.6,0.1-2.2-0.2c-1-0.5-1.3-1.6-1.7-2.6c-0.2-0.6-0.5-1.3-0.7-1.9c-0.1-0.3-0.3-0.6-0.4-0.9
						c-0.1-0.3-0.1-0.4-0.2-0.1c-0.7,1.3-1,3-1.2,4.5c-0.2,1.7,0.1,3.5,0.4,5.3c0.2,1.1,0.3,2.2-0.1,3.2c-0.2,0.5-0.6,1-1.1,0.8
						c-0.3-0.1-0.5-0.4-0.7-0.6c-0.4-0.6-0.8-1.2-1.2-1.8c-1.1,1.1-2.6-1.3-3.1-2.3c-1.6,1.4-2.7-4.6-2.9-5.5
						C106.9,169.6,106.9,168.2,106.9,166.8z"/>
				</g>
				<path class="st5" d="M114.5,180.5c0.1,0.1,0.2,0.2,0.2,0.3l0,0c-0.2-0.1-0.5-0.7-0.9-1.5l0,0
					C114.1,179.8,114.3,180.2,114.5,180.5z"/>
				<path class="st2" d="M112,156.2c0.7-0.4,2.7,0.4,3.6-1.3c3.8-7.1,5.2-14.9,5-18s-0.2-3.3,1.6-7.5c1.7-4.2,1.4-11.1,3.1-13.8
					c1.7-2.7,2.5-7.7,2.6-9.3v-0.1c0.2,1.3,0.4,2.7,0.5,4c0.2,3.6,0.6,7.2,0.7,10.8c-0.7,2.2-1.6,4.5-1.9,5.4
					c-0.6,1.8-2.1,5.2-2.8,10.4c-0.6,5.2-4.9,16.3-5.5,18.3s-0.2,3.1-0.2,3.1c2.6,4,1.8,6.9,2.1,9.2c0.3,2.3,1.8,4.5,1.5,5.1
					c-0.3,0.7-1.3,0.7-2.2,0.2c1.2,0.6,2-0.1,1.5-0.8c-0.5-0.8-1.5-2-1.8-4.1s-0.7-5.3-2.2-8.3C116.2,156.8,111.3,156.7,112,156.2z"
					/>
				<path class="st2" d="M108.3,166.7c0.4-1.4,0.6-0.6,0.6,0.4s-0.4,3,0,5.3c0.5,2.3,1.5,2.3,1.3,1.3s-0.3-3.4,0-5.3
					c0.3-1.9,0.8-1.7,0.8-0.8s-0.3,3.3,0.2,6.1c0.6,2.8,0.8-3.8,1.2-5.2c0.4-1.4,1-1.6,0.7,0.2s-0.4,3.3-0.2,6.1
					c0.1,1.6,0.5,3.3,1,4.5c-0.2-0.2-0.5-0.5-0.7-0.8c-0.2,0.3-0.5,0.5-1.2,0.2c-0.6-0.3-1.3-1.3-1.9-2.6c-0.2,0.3-0.4,0.5-0.8,0.4
					c-0.9-0.4-1.8-4.4-2-5.8c0-0.2,0-0.5-0.1-0.9C107.6,173.7,107.9,168,108.3,166.7z"/>
				<path class="st2" d="M115.4,179.3c0-1-0.8-4.3-0.9-6.3s0.9-4.8,1.6-6.4c0.7-1.7,1.2,0,1.4,1.2l0,0c-0.2-0.5-0.4-0.8-0.5-0.8
					c-0.3,0.1-1.1,2.7-1.4,4.7s0.2,4.6,0.5,6.3c0.3,1.6-0.3,4-1.3,2.9C115.2,180.9,115.4,180.3,115.4,179.3z"/>
				<g>
					<path class="st1" d="M113.5,168.1c-0.3,1.8-0.6,3.7-0.5,5.6c0.1,2.2,0.4,4.9,1.7,6.8c0.2,0.3-0.2,0.5-0.4,0.2
						c-1.2-1.9-1.5-4.3-1.7-6.4c-0.2-2.1,0-4.2,0.4-6.3C113.1,167.6,113.6,167.8,113.5,168.1L113.5,168.1z"/>
					<path class="st1" d="M111.3,168c0.1,3.8-0.3,8.3,2.8,11.1c0.2,0.2-0.1,0.5-0.3,0.3c-3.2-2.9-2.8-7.6-2.9-11.5
						C110.8,167.7,111.3,167.7,111.3,168L111.3,168z"/>
					<path class="st1" d="M109.2,166.3c-0.1,1.9-0.2,3.8,0,5.6c0.1,1.4,0.5,2.7,1.1,3.9c0.2,0.5,1.7,3.6,2.7,2.4
						c0.2-0.2,0.5,0.1,0.3,0.3c-1.7,2-3.8-3.2-4.1-4.1c-0.9-2.6-0.7-5.5-0.5-8.2C108.7,166,109.2,166,109.2,166.3L109.2,166.3z"/>
					<path class="st1" d="M129,118.9c0-0.3-0.1-0.6-0.1-0.9c-0.2-1.2-0.2-2.3-0.2-3.5C128.8,115.9,128.9,117.4,129,118.9z"/>
				</g>
				<path class="st1" d="M106.9,166.8c0-1.5,0-3.1,0.4-4.6c0.8-2.3,2.5-4.2,3.3-6.6c0.8-2.1,1-4.5,1.4-6.7c0.6-3.5,1.3-6.9,2.3-10.3
					c0.8-2.8,1.7-5.6,2.6-8.5c1.5-4.8,2.2-9.7,3.4-14.6c1-4,0.6-8.4,2.2-12.2c0.9-2,2.3-3.6,4.2-4.7c0,0.2,0,0.4,0,0.5
					c-0.1,0.1-0.3,0.1-0.4,0.2c-4.6,2.9-4.6,9.2-5.3,14c-0.2,1.2-0.5,2.4-0.7,3.6c-0.6,2.7-1.1,5.3-1.7,8
					c-1.5,6.9-4.1,13.5-5.5,20.4c-0.6,3.1-1,6.2-1.8,9.2c-0.7,2.8-2.7,4.9-3.6,7.6c-0.7,2.3-0.5,5-0.4,7.3c0.1,1.1,0.3,2.1,0.5,3.1
					c0.1,0.4,1.1,4.1,1.9,3.1c0.1-0.1,0.3-0.2,0.4,0c0.2,0.5,1.8,3.6,2.7,2.4c0.1-0.1,0.3-0.2,0.4,0c0.5,0.6,0.8,0.9,1.1,1.6
					c0.1,0.2,0.6,1.3,1,0.9c0.2-0.2,0.3-0.6,0.4-0.9c0.3-1.4-0.2-3-0.4-4.4c-0.3-2.7-0.1-5.5,1-8.1c0.8-1.8,1.5,0.9,1.8,1.6
					c0.5,1.4,0.8,3,2.2,3.7c0.5,0.3,2,0.4,1.7-0.6c-0.2-0.7-0.5-1.3-0.8-1.9c-1-2.4-0.6-4.8-1-7.3c-0.3-1.6-0.9-3.1-1.8-4.4
					c-0.3-0.4-0.2-1.3-0.1-1.8c0.2-1.7,1-3.3,1.5-4.9c0.8-2.3,1.6-4.6,2.3-6.9c0.6-2,1.2-3.9,1.6-5.9c0.5-2.2,0.7-4.5,1.3-6.8
					c1-4,2.6-7.8,4-11.7c0,0.4,0,0.8,0.1,1.3c-1.5,4.3-3.3,8.6-4.1,13.1c-0.5,2.4-0.8,4.8-1.4,7.2c-0.7,2.5-1.5,4.9-2.3,7.3
					c-0.6,1.8-1.3,3.6-1.9,5.4c-0.3,0.9-0.6,1.9-0.6,2.9c0,1.1,1,2.2,1.4,3.2c0.9,2.3,0.5,4.7,0.9,7.1c0.2,1.4,0.8,2.6,1.3,3.9
					c0.2,0.6,0.2,1.1-0.3,1.5c-0.6,0.5-1.6,0.1-2.2-0.2c-1-0.5-1.3-1.6-1.7-2.6c-0.2-0.6-0.5-1.3-0.7-1.9c-0.1-0.3-0.3-0.6-0.4-0.9
					c-0.1-0.3-0.1-0.4-0.2-0.1c-0.7,1.3-1,3-1.2,4.5c-0.2,1.7,0.1,3.5,0.4,5.3c0.2,1.1,0.3,2.2-0.1,3.2c-0.2,0.5-0.6,1-1.1,0.8
					c-0.3-0.1-0.5-0.4-0.7-0.6c-0.4-0.6-0.8-1.2-1.2-1.8c-1.1,1.1-2.6-1.3-3.1-2.3c-1.6,1.4-2.7-4.6-2.9-5.5
					C106.9,169.6,106.9,168.2,106.9,166.8z"/>
				<path class="st4" d="M122.5,110.1c0.6-4.6,1.3-9.2,3.9-9.2c0.3,0,0.5,0.1,0.7,0.3c0.1,0.6,0.2,1.2,0.3,1.8
					c-0.3,2.4-1.9,6.1-2.9,7.7C122.9,113.1,122.2,112.9,122.5,110.1z"/>
				<path class="st4" d="M113.7,147.1c0.8-4.4,2.5-12.1,3.8-11.8c1.4,0.3-3.3,18.7-4.4,19.8C112,156.2,113.3,149,113.7,147.1z"/>
				<path class="st4" d="M112,157.6c1.4,0.3,3.5,0.6,3.3,4.3c-0.2,3.8-1.2,6.9-1.3,5.1c-0.1-1.7-2.4,1.7-2.9-0.7s-1,1.3-1.8-1.4
					s-1.8,1.2-1.4-1.4C108.2,160.9,110.9,157.4,112,157.6z"/>
				<path class="st4" d="M118.8,128c0.5-2.3,2.1-11.8,2.9-11.9c0.8-0.2-0.1,8.2-1.2,10.8c-1.1,2.6-2.1,5-1.7,1.4
					C118.8,128.3,118.8,128,118.8,128z"/>
			</g>
		</g>
	</g>
</g>
<g id="hand">
	<g>
		<g>
			<g>
				<g>
					<path class="st0" d="M176.9,158.4c-2.5,3.9-1.8,6.9-2.1,9.1c-0.3,2.3-1.8,4.5-1.5,5.1c0.5,1.2,2.9,0.5,3.5-1.3s1.5-4.4,1.8-4.4
						c0.3,0.1,1.1,2.7,1.4,4.7c0.3,2-0.2,4.6-0.5,6.3s0.4,4.3,1.5,2.6c0.2-0.3,0.4-0.8,0.6-1.2c0.3-0.2,0.5-0.5,0.8-0.8
						c0.2,0.3,0.5,0.5,1.2,0.2c0.6-0.3,1.3-1.3,1.9-2.6c0.2,0.3,0.4,0.5,0.8,0.4c0.9-0.4,1.8-4.4,2-5.8c0.2-1.4,0.2-6.7-0.3-8.3
						c-0.5-1.4-1.3-2.6-2.4-4.6"/>
					<path class="st1" d="M188.3,162.3c-0.6-1.6-1.5-3-2.3-4.5c-0.2-0.1-0.4-0.1-0.6-0.2c0.8,1.6,1.8,3.1,2.4,4.7
						c0.7,2.3,0.5,5,0.4,7.3c-0.1,1.1-0.3,2.1-0.5,3.1c-0.1,0.4-1.1,4.1-1.9,3.1c-0.1-0.1-0.3-0.2-0.4,0c-0.2,0.5-1.8,3.6-2.7,2.4
						c-0.1-0.1-0.3-0.2-0.4,0c-0.5,0.6-0.8,0.9-1.1,1.6c-0.1,0.2-0.6,1.3-1,0.9c-0.2-0.2-0.3-0.6-0.4-0.9c-0.3-1.4,0.2-3,0.4-4.4
						c0.3-2.7,0.1-5.5-1-8.1c-0.8-1.8-1.5,0.9-1.8,1.6c-0.5,1.4-0.8,3-2.2,3.7c-0.5,0.3-2,0.4-1.7-0.6c0.2-0.7,0.5-1.3,0.8-1.9
						c1-2.4,0.6-4.8,1-7.3c0.3-1.6,0.9-3.1,1.8-4.4c0-0.1,0.1-0.1,0.1-0.2c-0.2,0.1-0.4,0.2-0.6,0.3c-0.3,0.8-0.9,1.5-1.2,2.3
						c-0.9,2.3-0.5,4.7-0.9,7.1c-0.2,1.4-0.8,2.6-1.3,3.9c-0.2,0.6-0.2,1.1,0.3,1.5c0.6,0.5,1.6,0.1,2.2-0.2c1-0.5,1.3-1.6,1.7-2.6
						c0.2-0.6,0.5-1.3,0.7-1.9c0.1-0.3,0.3-0.6,0.4-0.9c0.1-0.3,0.1-0.4,0.2-0.1c0.7,1.3,1,3,1.2,4.5c0.2,1.7-0.1,3.5-0.4,5.3
						c-0.2,1.1-0.3,2.2,0.1,3.2c0.2,0.5,0.6,1,1.1,0.8c0.3-0.1,0.5-0.4,0.7-0.6c0.4-0.6,0.8-1.2,1.2-1.8c1.1,1.1,2.6-1.3,3.1-2.3
						c1.6,1.4,2.7-4.6,2.9-5.5c0.2-1.4,0.2-2.8,0.2-4.2C188.7,165.3,188.8,163.7,188.3,162.3z"/>
				</g>
				<path class="st5" d="M181.2,180.5c-0.1,0.1-0.2,0.2-0.2,0.3l0,0c0.2-0.1,0.5-0.7,0.9-1.5l0,0
					C181.6,179.8,181.4,180.2,181.2,180.5z"/>
				<path class="st2" d="M181.4,156.6c-0.2-0.1-0.5-0.1-0.7-0.1c-0.2,0.1-0.3,0.1-0.5,0.2c-1.2,0.6-2.2,1.2-3.3,1.7
					c-2.5,3.9-1.8,6.9-2.1,9.1c-0.3,2.3-1.8,4.5-1.5,5.1c0.3,0.7,1.3,0.7,2.2,0.2c-1.2,0.6-2-0.1-1.5-0.8c0.5-0.8,1.5-2,1.8-4.1
					s0.7-5.3,2.2-8.3c0.9-1.8,3-2.5,4.4-2.9C182,156.7,181.7,156.7,181.4,156.6z"/>
				<path class="st2" d="M187.4,166.7c-0.4-1.4-0.6-0.6-0.6,0.4s0.4,3,0,5.3c-0.5,2.3-1.5,2.3-1.3,1.3s0.3-3.4,0-5.3
					c-0.3-1.9-0.8-1.7-0.8-0.8s0.3,3.3-0.2,6.1c-0.6,2.8-0.8-3.8-1.2-5.2s-1-1.6-0.7,0.2s0.4,3.3,0.2,6.1c-0.1,1.6-0.5,3.3-1,4.5
					c0.2-0.2,0.5-0.5,0.7-0.8c0.2,0.3,0.5,0.5,1.2,0.2c0.6-0.3,1.3-1.3,1.9-2.6c0.2,0.3,0.4,0.5,0.8,0.4c0.9-0.4,1.8-4.4,2-5.8
					c0-0.2,0-0.5,0.1-0.9C188.1,173.7,187.8,168,187.4,166.7z"/>
				<path class="st2" d="M180.3,179.3c0-1,0.8-4.3,0.9-6.3c0.1-2-0.9-4.8-1.6-6.4c-0.7-1.7-1.2,0-1.4,1.2l0,0
					c0.2-0.5,0.4-0.8,0.5-0.8c0.3,0.1,1.1,2.7,1.4,4.7c0.3,2-0.2,4.6-0.5,6.3c-0.3,1.6,0.3,4,1.3,2.9
					C180.5,180.9,180.3,180.3,180.3,179.3z"/>
				<g>
					<path class="st1" d="M182.2,168.1c0.3,1.8,0.6,3.7,0.5,5.6c-0.1,2.2-0.4,4.9-1.7,6.8c-0.2,0.3,0.2,0.5,0.4,0.2
						c1.2-1.9,1.5-4.3,1.7-6.4c0.2-2.1,0-4.2-0.4-6.3C182.6,167.6,182.1,167.8,182.2,168.1L182.2,168.1z"/>
					<path class="st1" d="M184.4,168c-0.1,3.8,0.3,8.3-2.8,11.1c-0.2,0.2,0.1,0.5,0.3,0.3c3.2-2.9,2.8-7.6,2.9-11.5
						C184.9,167.7,184.4,167.7,184.4,168L184.4,168z"/>
					<path class="st1" d="M186.5,166.3c0.1,1.9,0.2,3.8,0,5.6c-0.1,1.4-0.5,2.7-1.1,3.9c-0.2,0.5-1.7,3.6-2.7,2.4
						c-0.2-0.2-0.5,0.1-0.3,0.3c1.7,2,3.8-3.2,4.1-4.1c0.9-2.6,0.7-5.5,0.5-8.2C187,166,186.5,166,186.5,166.3L186.5,166.3z"/>
				</g>
				<path class="st1" d="M188.3,162.3c-0.6-1.6-1.5-3-2.3-4.5c-0.2-0.1-0.4-0.1-0.6-0.2c0.8,1.6,1.8,3.1,2.4,4.7
					c0.7,2.3,0.5,5,0.4,7.3c-0.1,1.1-0.3,2.1-0.5,3.1c-0.1,0.4-1.1,4.1-1.9,3.1c-0.1-0.1-0.3-0.2-0.4,0c-0.2,0.5-1.8,3.6-2.7,2.4
					c-0.1-0.1-0.3-0.2-0.4,0c-0.5,0.6-0.8,0.9-1.1,1.6c-0.1,0.2-0.6,1.3-1,0.9c-0.2-0.2-0.3-0.6-0.4-0.9c-0.3-1.4,0.2-3,0.4-4.4
					c0.3-2.7,0.1-5.5-1-8.1c-0.8-1.8-1.5,0.9-1.8,1.6c-0.5,1.4-0.8,3-2.2,3.7c-0.5,0.3-2,0.4-1.7-0.6c0.2-0.7,0.5-1.3,0.8-1.9
					c1-2.4,0.6-4.8,1-7.3c0.3-1.6,0.9-3.1,1.8-4.4c0-0.1,0.1-0.1,0.1-0.2c-0.2,0.1-0.4,0.2-0.6,0.3c-0.3,0.8-0.9,1.5-1.2,2.3
					c-0.9,2.3-0.5,4.7-0.9,7.1c-0.2,1.4-0.8,2.6-1.3,3.9c-0.2,0.6-0.2,1.1,0.3,1.5c0.6,0.5,1.6,0.1,2.2-0.2c1-0.5,1.3-1.6,1.7-2.6
					c0.2-0.6,0.5-1.3,0.7-1.9c0.1-0.3,0.3-0.6,0.4-0.9c0.1-0.3,0.1-0.4,0.2-0.1c0.7,1.3,1,3,1.2,4.5c0.2,1.7-0.1,3.5-0.4,5.3
					c-0.2,1.1-0.3,2.2,0.1,3.2c0.2,0.5,0.6,1,1.1,0.8c0.3-0.1,0.5-0.4,0.7-0.6c0.4-0.6,0.8-1.2,1.2-1.8c1.1,1.1,2.6-1.3,3.1-2.3
					c1.6,1.4,2.7-4.6,2.9-5.5c0.2-1.4,0.2-2.8,0.2-4.2C188.7,165.3,188.8,163.7,188.3,162.3z"/>
				<path class="st4" d="M183.7,157.6c-1.4,0.3-3.5,0.6-3.3,4.3c0.2,3.8,1.2,6.9,1.3,5.1c0.1-1.7,2.4,1.7,2.9-0.7s1,1.3,1.8-1.4
					s1.8,1.2,1.4-1.4C187.5,160.9,184.8,157.4,183.7,157.6z"/>
			</g>
		</g>
	</g>
	<g>
		<g>
			<g>
				<g>
					<path class="st0" d="M110.4,157c-1.3,2.4-2.2,3.7-2.8,5.3c-0.5,1.6-0.5,6.8-0.3,8.3c0.2,1.4,1.1,5.5,2,5.8
						c0.3,0.1,0.6,0,0.8-0.4c0.6,1.3,1.3,2.3,1.9,2.6s1,0.1,1.2-0.2c0.2,0.3,0.5,0.6,0.8,0.8c0.2,0.5,0.4,0.9,0.6,1.2
						c1.2,1.7,1.8-0.9,1.5-2.6c-0.3-1.7-0.8-4.3-0.5-6.3s1.1-4.6,1.4-4.7c0.3-0.1,1.2,2.6,1.8,4.4c0.6,1.8,3,2.5,3.5,1.3
						c0.2-0.5-1.2-2.8-1.5-5.1c-0.3-2.1,0.4-4.8-1.6-8.3c-0.3-0.2-0.5-0.4-0.8-0.6"/>
					<path class="st1" d="M121.1,167.8c-0.4-2.4,0-4.7-0.9-7.1c-0.2-0.5-0.5-1-0.8-1.5c-0.3-0.2-0.5-0.3-0.7-0.5
						c0.8,1.3,1.4,2.6,1.6,4.1c0.4,2.5,0.1,4.9,1,7.3c0.2,0.6,0.6,1.3,0.8,1.9c0.3,1.1-1.1,0.9-1.7,0.6c-1.4-0.8-1.7-2.3-2.2-3.7
						c-0.3-0.7-1-3.4-1.8-1.6c-1.1,2.5-1.3,5.3-1,8.1c0.2,1.4,0.7,3,0.4,4.4c-0.1,0.3-0.1,0.7-0.4,0.9c-0.4,0.3-0.9-0.7-1-0.9
						c-0.3-0.7-0.6-1-1.1-1.6c-0.1-0.1-0.3-0.1-0.4,0c-0.9,1.2-2.5-1.9-2.7-2.4c-0.1-0.2-0.3-0.1-0.4,0c-0.8,1.1-1.8-2.6-1.9-3.1
						c-0.3-1-0.5-2.1-0.5-3.1c-0.1-2.3-0.3-5.1,0.4-7.3c0.7-2,2-3.8,2.9-5.7c-0.2,0-0.4,0.1-0.5,0.1c-0.9,1.9-2.2,3.5-2.8,5.5
						c-0.4,1.4-0.4,3.1-0.4,4.6c0,1.4,0,2.8,0.2,4.2c0.1,0.8,1.3,6.8,2.9,5.5c0.6,1.1,2,3.4,3.1,2.3c0.4,0.6,0.8,1.2,1.2,1.8
						c0.1,0.2,0.4,0.5,0.7,0.6c0.6,0.2,1-0.3,1.1-0.8c0.3-1.1,0.2-2.1,0.1-3.2c-0.3-1.7-0.6-3.5-0.4-5.3c0.2-1.5,0.5-3.2,1.2-4.5
						c0.1-0.3,0.1-0.2,0.2,0.1s0.3,0.6,0.4,0.9c0.2,0.6,0.5,1.3,0.7,1.9c0.4,1,0.7,2,1.7,2.6c0.6,0.3,1.5,0.7,2.2,0.2
						c0.6-0.4,0.6-0.8,0.3-1.5C122,170.5,121.3,169.2,121.1,167.8z"/>
				</g>
				<path class="st5" d="M114.5,180.5c0.1,0.1,0.2,0.2,0.2,0.3l0,0c-0.2-0.1-0.5-0.7-0.9-1.5l0,0
					C114.1,179.8,114.3,180.2,114.5,180.5z"/>
				<path class="st2" d="M119.2,159.2c-0.3-0.2-0.5-0.4-0.8-0.6c-1.1-1-3.5-1.8-5.8-1.9c1.3,0.4,4,1,5.1,3.1
					c1.5,2.9,1.9,6.2,2.2,8.3c0.3,2.1,1.2,3.3,1.8,4.1c0.4,0.7-0.3,1.4-1.5,0.8c0.9,0.5,1.9,0.5,2.2-0.2c0.2-0.5-1.2-2.8-1.5-5.1
					C120.6,165.4,121.2,162.7,119.2,159.2z"/>
				<path class="st2" d="M108.3,166.7c0.4-1.4,0.6-0.6,0.6,0.4s-0.4,3,0,5.3c0.5,2.3,1.5,2.3,1.3,1.3s-0.3-3.4,0-5.3
					c0.3-1.9,0.8-1.7,0.8-0.8s-0.3,3.3,0.2,6.1c0.6,2.8,0.8-3.8,1.2-5.2c0.4-1.4,1-1.6,0.7,0.2s-0.4,3.3-0.2,6.1
					c0.1,1.6,0.5,3.3,1,4.5c-0.2-0.2-0.5-0.5-0.7-0.8c-0.2,0.3-0.5,0.5-1.2,0.2c-0.6-0.3-1.3-1.3-1.9-2.6c-0.2,0.3-0.4,0.5-0.8,0.4
					c-0.9-0.4-1.8-4.4-2-5.8c0-0.2,0-0.5-0.1-0.9C107.6,173.7,107.9,168,108.3,166.7z"/>
				<path class="st2" d="M115.4,179.3c0-1-0.8-4.3-0.9-6.3s0.9-4.8,1.6-6.4c0.7-1.7,1.2,0,1.4,1.2l0,0c-0.2-0.5-0.4-0.8-0.5-0.8
					c-0.3,0.1-1.1,2.7-1.4,4.7s0.2,4.6,0.5,6.3c0.3,1.6-0.3,4-1.3,2.9C115.2,180.9,115.4,180.3,115.4,179.3z"/>
				<g>
					<path class="st1" d="M113.5,168.1c-0.3,1.8-0.6,3.7-0.5,5.6c0.1,2.2,0.4,4.9,1.7,6.8c0.2,0.3-0.2,0.5-0.4,0.2
						c-1.2-1.9-1.5-4.3-1.7-6.4c-0.2-2.1,0-4.2,0.4-6.3C113.1,167.6,113.6,167.8,113.5,168.1L113.5,168.1z"/>
					<path class="st1" d="M111.3,168c0.1,3.8-0.3,8.3,2.8,11.1c0.2,0.2-0.1,0.5-0.3,0.3c-3.2-2.9-2.8-7.6-2.9-11.5
						C110.8,167.7,111.3,167.7,111.3,168L111.3,168z"/>
					<path class="st1" d="M109.2,166.3c-0.1,1.9-0.2,3.8,0,5.6c0.1,1.4,0.5,2.7,1.1,3.9c0.2,0.5,1.7,3.6,2.7,2.4
						c0.2-0.2,0.5,0.1,0.3,0.3c-1.7,2-3.8-3.2-4.1-4.1c-0.9-2.6-0.7-5.5-0.5-8.2C108.7,166,109.2,166,109.2,166.3L109.2,166.3z"/>
				</g>
				<path class="st1" d="M121.1,167.8c-0.4-2.4,0-4.7-0.9-7.1c-0.2-0.5-0.5-1-0.8-1.5c-0.3-0.2-0.5-0.3-0.7-0.5
					c0.8,1.3,1.4,2.6,1.6,4.1c0.4,2.5,0.1,4.9,1,7.3c0.2,0.6,0.6,1.3,0.8,1.9c0.3,1.1-1.1,0.9-1.7,0.6c-1.4-0.8-1.7-2.3-2.2-3.7
					c-0.3-0.7-1-3.4-1.8-1.6c-1.1,2.5-1.3,5.3-1,8.1c0.2,1.4,0.7,3,0.4,4.4c-0.1,0.3-0.1,0.7-0.4,0.9c-0.4,0.3-0.9-0.7-1-0.9
					c-0.3-0.7-0.6-1-1.1-1.6c-0.1-0.1-0.3-0.1-0.4,0c-0.9,1.2-2.5-1.9-2.7-2.4c-0.1-0.2-0.3-0.1-0.4,0c-0.8,1.1-1.8-2.6-1.9-3.1
					c-0.3-1-0.5-2.1-0.5-3.1c-0.1-2.3-0.3-5.1,0.4-7.3c0.7-2,2-3.8,2.9-5.7c-0.2,0-0.4,0.1-0.5,0.1c-0.9,1.9-2.2,3.5-2.8,5.5
					c-0.4,1.4-0.4,3.1-0.4,4.6c0,1.4,0,2.8,0.2,4.2c0.1,0.8,1.3,6.8,2.9,5.5c0.6,1.1,2,3.4,3.1,2.3c0.4,0.6,0.8,1.2,1.2,1.8
					c0.1,0.2,0.4,0.5,0.7,0.6c0.6,0.2,1-0.3,1.1-0.8c0.3-1.1,0.2-2.1,0.1-3.2c-0.3-1.7-0.6-3.5-0.4-5.3c0.2-1.5,0.5-3.2,1.2-4.5
					c0.1-0.3,0.1-0.2,0.2,0.1s0.3,0.6,0.4,0.9c0.2,0.6,0.5,1.3,0.7,1.9c0.4,1,0.7,2,1.7,2.6c0.6,0.3,1.5,0.7,2.2,0.2
					c0.6-0.4,0.6-0.8,0.3-1.5C122,170.5,121.3,169.2,121.1,167.8z"/>
				<path class="st4" d="M112,157.6c1.4,0.3,3.5,0.6,3.3,4.3c-0.2,3.8-1.2,6.9-1.3,5.1c-0.1-1.7-2.4,1.7-2.9-0.7s-1,1.3-1.8-1.4
					s-1.8,1.2-1.4-1.4C108.2,160.9,110.9,157.4,112,157.6z"/>
			</g>
		</g>
	</g>
</g>
<g id="FINGER">
	<g>
		<g>
			<g>
				<g>
					<path class="st1" d="M188.3,167c0,0.9-0.1,1.8-0.1,2.6c-0.1,1.1-0.3,2.1-0.5,3.1c-0.1,0.4-1.1,4.1-1.9,3.1
						c-0.1-0.1-0.3-0.2-0.4,0c-0.2,0.5-1.8,3.6-2.7,2.4c-0.1-0.1-0.3-0.2-0.4,0c-0.5,0.6-0.8,0.9-1.1,1.6c-0.1,0.2-0.6,1.3-1,0.9
						c-0.2-0.2-0.3-0.6-0.4-0.9c-0.3-1.4,0.2-3,0.4-4.4c0.3-2.7,0.1-5.5-1-8.1c0-0.1-0.1-0.1-0.1-0.2c-0.1-0.1-0.2-0.1-0.3-0.2
						c-0.2,0-0.3,0-0.5,0c-0.4,0.5-0.7,1.6-0.9,2c-0.5,1.4-0.8,3-2.2,3.7c-0.5,0.3-2,0.4-1.7-0.6c0.2-0.7,0.5-1.3,0.8-1.9
						c0.4-1,0.6-2,0.7-3c-0.1,0-0.2,0-0.4-0.1c0,0.3-0.1,0.5-0.1,0.8c-0.2,1.4-0.8,2.6-1.3,3.9c-0.2,0.6-0.2,1.1,0.3,1.5
						c0.6,0.5,1.6,0.1,2.2-0.2c1-0.5,1.3-1.6,1.7-2.6c0.2-0.6,0.5-1.3,0.7-1.9c0.1-0.3,0.3-0.6,0.4-0.9c0.1-0.3,0.1-0.4,0.2-0.1
						c0.7,1.3,1,3,1.2,4.5c0.2,1.7-0.1,3.5-0.4,5.3c-0.2,1.1-0.3,2.2,0.1,3.2c0.2,0.5,0.6,1,1.1,0.8c0.3-0.1,0.5-0.4,0.7-0.6
						c0.4-0.6,0.8-1.2,1.2-1.8c1.1,1.1,2.6-1.3,3.1-2.3c1.6,1.4,2.7-4.6,2.9-5.5c0.2-1.2,0.2-2.5,0.2-3.8
						C188.6,167.1,188.5,167,188.3,167z"/>
				</g>
				<path class="st5" d="M181.1,180.4c-0.1,0.1-0.2,0.2-0.2,0.3l0,0c0.2-0.1,0.5-0.7,0.9-1.5l0,0C181.6,179.6,181.3,180,181.1,180.4
					z"/>
				<path class="st2" d="M175.7,167.9c0-0.3,0.1-0.5,0.1-0.8c-0.3,0-0.7,0-1-0.1c0,0.2,0,0.3,0,0.4c-0.3,2.3-1.8,4.5-1.5,5.1
					c0.3,0.7,1.3,0.7,2.2,0.2c-1.2,0.6-2-0.1-1.5-0.8C174.5,171.2,175.4,169.9,175.7,167.9z"/>
				<path class="st2" d="M187.4,166.7c-0.2-0.1-0.3-0.2-0.2-0.2c-0.1,0-0.3,0-0.4,0.1c0,0.1,0,0.2,0,0.3c0,1,0.4,3,0,5.3
					c-0.5,2.3-1.5,2.3-1.3,1.3s0.3-3.4,0-5.3c-0.1-0.5-0.2-0.9-0.3-1.1c-0.2,0-0.3,0.1-0.5,0.1c0,0.1,0,0.1,0,0.2
					c0,0.9,0.3,3.3-0.2,6.1c-0.6,2.8-0.8-3.8-1.2-5.2c-0.1-0.4-0.2-0.6-0.3-0.8c-0.1,0-0.3,0-0.4,0c0,0.2,0,0.5,0.1,1
					c0.3,1.8,0.4,3.3,0.2,6.1c-0.1,1.6-0.5,3.3-1,4.5c0.2-0.2,0.5-0.5,0.7-0.8c0.2,0.3,0.5,0.5,1.2,0.2c0.6-0.3,1.3-1.3,1.9-2.6
					c0.2,0.3,0.4,0.5,0.8,0.4c0.9-0.4,1.8-4.4,2-5.8c0-0.2,0-0.5,0.1-0.9C188.1,173.4,187.8,168.2,187.4,166.7z"/>
				<path class="st2" d="M179.9,167.4c-0.4-0.1-0.8-0.3-1.1-0.6l0,0c0.3,0.4,1.1,2.7,1.3,4.6c0.3,2-0.2,4.6-0.5,6.3
					c-0.3,1.6,0.3,4,1.3,2.9c-0.5,0.1-0.6-0.5-0.6-1.5s0.8-4.3,0.9-6.3C181.2,171.1,180.5,169,179.9,167.4z"/>
				<g>
					<path class="st1" d="M182.1,167.9c0.3,1.8,0.6,3.7,0.5,5.6c-0.1,2.2-0.4,4.9-1.7,6.8c-0.2,0.3,0.2,0.5,0.4,0.2
						c1.2-1.9,1.5-4.3,1.7-6.4c0.2-2.1,0-4.2-0.4-6.3C182.5,167.5,182.1,167.6,182.1,167.9L182.1,167.9z"/>
					<path class="st1" d="M184.4,167.9c-0.1,3.8,0.3,8.3-2.8,11.1c-0.2,0.2,0.1,0.5,0.3,0.3c3.2-2.9,2.8-7.6,2.9-11.5
						C184.8,167.6,184.4,167.6,184.4,167.9L184.4,167.9z"/>
					<path class="st1" d="M186.5,166.6L186.5,166.6c0.1,1.7,0.1,3.5,0,5.2c-0.1,1.4-0.5,2.7-1.1,3.9c-0.2,0.5-1.7,3.6-2.7,2.4
						c-0.2-0.2-0.5,0.1-0.3,0.3c1.7,2,3.8-3.2,4.1-4.1c0.8-2.5,0.7-5.3,0.5-7.9C186.8,166.5,186.7,166.6,186.5,166.6z"/>
				</g>
				<path class="st1" d="M188.3,167c0,0.9-0.1,1.8-0.1,2.6c-0.1,1.1-0.3,2.1-0.5,3.1c-0.1,0.4-1.1,4.1-1.9,3.1
					c-0.1-0.1-0.3-0.2-0.4,0c-0.2,0.5-1.8,3.6-2.7,2.4c-0.1-0.1-0.3-0.2-0.4,0c-0.5,0.6-0.8,0.9-1.1,1.6c-0.1,0.2-0.6,1.3-1,0.9
					c-0.2-0.2-0.3-0.6-0.4-0.9c-0.3-1.4,0.2-3,0.4-4.4c0.3-2.7,0.1-5.5-1-8.1c0-0.1-0.1-0.1-0.1-0.2c-0.1-0.1-0.2-0.1-0.3-0.2
					c-0.2,0-0.3,0-0.5,0c-0.4,0.5-0.7,1.6-0.9,2c-0.5,1.4-0.8,3-2.2,3.7c-0.5,0.3-2,0.4-1.7-0.6c0.2-0.7,0.5-1.3,0.8-1.9
					c0.4-1,0.6-2,0.7-3c-0.1,0-0.2,0-0.4-0.1c0,0.3-0.1,0.5-0.1,0.8c-0.2,1.4-0.8,2.6-1.3,3.9c-0.2,0.6-0.2,1.1,0.3,1.5
					c0.6,0.5,1.6,0.1,2.2-0.2c1-0.5,1.3-1.6,1.7-2.6c0.2-0.6,0.5-1.3,0.7-1.9c0.1-0.3,0.3-0.6,0.4-0.9c0.1-0.3,0.1-0.4,0.2-0.1
					c0.7,1.3,1,3,1.2,4.5c0.2,1.7-0.1,3.5-0.4,5.3c-0.2,1.1-0.3,2.2,0.1,3.2c0.2,0.5,0.6,1,1.1,0.8c0.3-0.1,0.5-0.4,0.7-0.6
					c0.4-0.6,0.8-1.2,1.2-1.8c1.1,1.1,2.6-1.3,3.1-2.3c1.6,1.4,2.7-4.6,2.9-5.5c0.2-1.2,0.2-2.5,0.2-3.8
					C188.6,167.1,188.5,167,188.3,167z"/>
			</g>
		</g>
	</g>
	<g>
		<g>
			<g>
				<g>
					<path class="st1" d="M107.4,167c0,0.9,0.1,1.8,0.1,2.6c0.1,1.1,0.3,2.1,0.5,3.1c0.1,0.4,1.1,4.1,1.9,3.1c0.1-0.1,0.3-0.2,0.4,0
						c0.2,0.5,1.8,3.6,2.7,2.4c0.1-0.1,0.3-0.2,0.4,0c0.5,0.6,0.8,0.9,1.1,1.6c0.1,0.2,0.6,1.3,1,0.9c0.2-0.2,0.3-0.6,0.4-0.9
						c0.3-1.4-0.2-3-0.4-4.4c-0.3-2.7-0.1-5.5,1-8.1c0-0.1,0.1-0.1,0.1-0.2c0.1-0.1,0.2-0.1,0.3-0.2c0.2,0,0.3,0,0.5,0
						c0.4,0.5,0.7,1.6,0.9,2c0.5,1.4,0.8,3,2.2,3.7c0.5,0.3,2,0.4,1.7-0.6c-0.2-0.7-0.5-1.3-0.8-1.9c-0.4-1-0.6-2-0.7-3
						c0.1,0,0.2,0,0.4-0.1c0,0.3,0.1,0.5,0.1,0.8c0.2,1.4,0.8,2.6,1.3,3.9c0.2,0.6,0.2,1.1-0.3,1.5c-0.6,0.5-1.6,0.1-2.2-0.2
						c-1-0.5-1.3-1.6-1.7-2.6c-0.2-0.6-0.5-1.3-0.7-1.9c-0.1-0.3-0.3-0.6-0.4-0.9c-0.1-0.3-0.1-0.4-0.2-0.1c-0.7,1.3-1,3-1.2,4.5
						c-0.2,1.7,0.1,3.5,0.4,5.3c0.2,1.1,0.3,2.2-0.1,3.2c-0.2,0.5-0.6,1-1.1,0.8c-0.3-0.1-0.5-0.4-0.7-0.6c-0.4-0.6-0.8-1.2-1.2-1.8
						c-1.1,1.1-2.6-1.3-3.1-2.3c-1.6,1.4-2.7-4.6-2.9-5.5c-0.2-1.2-0.2-2.5-0.2-3.8C107.1,167.1,107.2,167,107.4,167z"/>
				</g>
				<path class="st5" d="M114.6,180.4c0.1,0.1,0.2,0.2,0.2,0.3l0,0c-0.2-0.1-0.5-0.7-0.9-1.5l0,0C114.1,179.6,114.3,180,114.6,180.4
					z"/>
				<path class="st2" d="M120,167.9c0-0.3-0.1-0.5-0.1-0.8c0.3,0,0.7,0,1-0.1c0,0.2,0,0.3,0,0.4c0.3,2.3,1.8,4.5,1.5,5.1
					c-0.3,0.7-1.3,0.7-2.2,0.2c1.2,0.6,2-0.1,1.5-0.8C121.2,171.2,120.2,169.9,120,167.9z"/>
				<path class="st2" d="M108.3,166.7c0.2-0.1,0.3-0.2,0.2-0.2c0.1,0,0.3,0,0.4,0.1c0,0.1,0,0.2,0,0.3c0,1-0.4,3,0,5.3
					c0.5,2.3,1.5,2.3,1.3,1.3s-0.3-3.4,0-5.3c0.1-0.5,0.2-0.9,0.3-1.1c0.2,0,0.3,0.1,0.5,0.1c0,0.1,0,0.1,0,0.2
					c0,0.9-0.3,3.3,0.2,6.1c0.6,2.8,0.8-3.8,1.2-5.2c0.1-0.4,0.2-0.6,0.3-0.8c0.1,0,0.3,0,0.4,0c0,0.2,0,0.5-0.1,1
					c-0.3,1.8-0.4,3.3-0.2,6.1c0.1,1.6,0.5,3.3,1,4.5c-0.2-0.2-0.5-0.5-0.7-0.8c-0.2,0.3-0.5,0.5-1.2,0.2c-0.6-0.3-1.3-1.3-1.9-2.6
					c-0.2,0.3-0.4,0.5-0.8,0.4c-0.9-0.4-1.8-4.4-2-5.8c0-0.2,0-0.5-0.1-0.9C107.6,173.4,107.9,168.2,108.3,166.7z"/>
				<path class="st2" d="M115.8,167.4c0.4-0.1,0.8-0.3,1.1-0.6l0,0c-0.3,0.4-1.1,2.7-1.3,4.6c-0.3,2,0.2,4.6,0.5,6.3
					c0.3,1.6-0.3,4-1.3,2.9c0.5,0.1,0.6-0.5,0.6-1.5s-0.8-4.3-0.9-6.3C114.5,171.1,115.2,169,115.8,167.4z"/>
				<g>
					<path class="st1" d="M113.5,167.9c-0.3,1.8-0.6,3.7-0.5,5.6c0.1,2.2,0.4,4.9,1.7,6.8c0.2,0.3-0.2,0.5-0.4,0.2
						c-1.2-1.9-1.5-4.3-1.7-6.4c-0.2-2.1,0-4.2,0.4-6.3C113.1,167.5,113.6,167.6,113.5,167.9L113.5,167.9z"/>
					<path class="st1" d="M111.3,167.9c0.1,3.8-0.3,8.3,2.8,11.1c0.2,0.2-0.1,0.5-0.3,0.3c-3.2-2.9-2.8-7.6-2.9-11.5
						C110.8,167.6,111.3,167.6,111.3,167.9L111.3,167.9z"/>
					<path class="st1" d="M109.2,166.6L109.2,166.6c-0.1,1.7-0.1,3.5,0,5.2c0.1,1.4,0.5,2.7,1.1,3.9c0.2,0.5,1.7,3.6,2.7,2.4
						c0.2-0.2,0.5,0.1,0.3,0.3c-1.7,2-3.8-3.2-4.1-4.1c-0.8-2.5-0.7-5.3-0.5-7.9C108.9,166.5,109,166.6,109.2,166.6z"/>
				</g>
				<path class="st1" d="M107.4,167c0,0.9,0.1,1.8,0.1,2.6c0.1,1.1,0.3,2.1,0.5,3.1c0.1,0.4,1.1,4.1,1.9,3.1c0.1-0.1,0.3-0.2,0.4,0
					c0.2,0.5,1.8,3.6,2.7,2.4c0.1-0.1,0.3-0.2,0.4,0c0.5,0.6,0.8,0.9,1.1,1.6c0.1,0.2,0.6,1.3,1,0.9c0.2-0.2,0.3-0.6,0.4-0.9
					c0.3-1.4-0.2-3-0.4-4.4c-0.3-2.7-0.1-5.5,1-8.1c0-0.1,0.1-0.1,0.1-0.2c0.1-0.1,0.2-0.1,0.3-0.2c0.2,0,0.3,0,0.5,0
					c0.4,0.5,0.7,1.6,0.9,2c0.5,1.4,0.8,3,2.2,3.7c0.5,0.3,2,0.4,1.7-0.6c-0.2-0.7-0.5-1.3-0.8-1.9c-0.4-1-0.6-2-0.7-3
					c0.1,0,0.2,0,0.4-0.1c0,0.3,0.1,0.5,0.1,0.8c0.2,1.4,0.8,2.6,1.3,3.9c0.2,0.6,0.2,1.1-0.3,1.5c-0.6,0.5-1.6,0.1-2.2-0.2
					c-1-0.5-1.3-1.6-1.7-2.6c-0.2-0.6-0.5-1.3-0.7-1.9c-0.1-0.3-0.3-0.6-0.4-0.9c-0.1-0.3-0.1-0.4-0.2-0.1c-0.7,1.3-1,3-1.2,4.5
					c-0.2,1.7,0.1,3.5,0.4,5.3c0.2,1.1,0.3,2.2-0.1,3.2c-0.2,0.5-0.6,1-1.1,0.8c-0.3-0.1-0.5-0.4-0.7-0.6c-0.4-0.6-0.8-1.2-1.2-1.8
					c-1.1,1.1-2.6-1.3-3.1-2.3c-1.6,1.4-2.7-4.6-2.9-5.5c-0.2-1.2-0.2-2.5-0.2-3.8C107.1,167.1,107.2,167,107.4,167z"/>
			</g>
		</g>
	</g>
</g>
<g id="stomach">
	<path class="st2" d="M141,128.3c0,0,4.2-0.6,5.7-2.5s1.8-0.9,2.7,0s1.8,2,4.9,2.8c3.1,0.8,0.5,2-4.6,1.7
		C144.5,130,135.6,130.5,141,128.3z"/>
</g>
<g id="toe">
	<path class="st2" d="M181.2,273.6c1,0.3,1.1,1.6,0.1,1.2c-1-0.5-1.7-0.6-1.7-0.6c1.7,0.6,0.9,1.7,0.6,1.4c-0.3-0.4-2-0.7-2-0.7
		c1.4,0.8,1,1.4,0,1s-2-0.6-2-0.6l0.8,0.6c0.7,0.5-0.1,1.5-0.8,0.8s-3.1-1.5-3.1-1.5c2.1,1,2.2,1.8,1.1,3c-0.8,0.9-3.2,0.6-4.9-1.2
		c-0.1,0.2-0.1,0.4-0.2,0.5c2.4,2,3.5,2.6,5,2c0.2-0.1,0.5-0.2,0.7-0.4c0,0,1.3,0.5,2.4-0.4c0.1-0.1,0.2-0.2,0.3-0.3
		c0,0,1.4,0.7,2.1-0.7c0,0,1.2,0.2,1.6-1c0,0,1.2,0.3,1.6-0.8C183,274.8,182.2,273.9,181.2,273.6z"/>
	<path class="st1" d="M167.7,276.6c1.1,1.4,3.1,3.1,4.7,3.4c0.5,0.1,1.2,0.1,1.7-0.1c0.9-0.5,1,0,1.9-0.3c0.1,0,1.5-0.8,1.3-0.8
		c0.5,0.2,0.9,0.1,1.4,0c0,0,0.8-0.7,0.7-0.8c0.3,0,0.9,0,1.1-0.3c0.3-0.3,0.5-0.7,0.8-0.7c0.5,0,0.9-0.2,1.2-0.5
		c1.1-1.3,0.1-2.6-1.2-3.2c-0.3-0.1-0.6,0.5-0.4,0.6c1,0.5,1.7,2.6,0.2,2.4c-0.1,0-0.3,0.1-0.3,0.2c-0.4,0.6-0.8,0.8-1.3,0.8
		c-0.1,0-0.2,0.1-0.3,0.2c-0.5,0.7-1.1,0.8-1.7,0.5c-0.1,0-0.2,0-0.3,0.1c-1.9,2.1-1.5,0-2.5,0.6c-1.5,0.9-2.5,0.5-3.9-0.4
		c-1-0.7-1.9-1.4-2.5-2.3"/>
	<path class="st1" d="M174.6,279.4c1.2,0.5,2.5-0.1,3.2-1.2c0.8-1.4-0.4-2.8-1.6-3.4c-0.3-0.1-0.6,0.5-0.4,0.6
		c0.9,0.4,1.9,1.2,1.7,2.3c-0.2,1.1-1.7,1.4-2.5,1C174.6,278.7,174.3,279.3,174.6,279.4L174.6,279.4z"/>
	<path class="st1" d="M177.2,278.7c0.8,0.4,1.8,0.2,2.2-0.6c0.9-1.4,0.2-3-1.3-3.6c-0.3-0.1-0.6,0.5-0.4,0.6c1.1,0.4,2,1.4,1.4,2.6
		c-0.3,0.6-1.1,0.6-1.6,0.4C177.3,277.9,177,278.5,177.2,278.7L177.2,278.7z"/>
	<path class="st1" d="M179.4,277.9c1.2,0.2,2-0.8,2.1-1.9c0.1-1.2-0.9-2.1-2.1-2.3c-0.3,0-0.6,0.6-0.2,0.6c0.6,0.1,1.3,0.5,1.6,1
		c0.6,0.9-0.2,2-1.2,1.9C179.3,277.2,179,277.9,179.4,277.9L179.4,277.9z"/>
	<path class="st1" d="M172.7,275.3c1,0.4,2.1,0.9,2.4,2c0.2,0.8-0.3,1.6-1.1,1.9c-0.3,0.1-0.4,0.7,0,0.6c0.9-0.4,1.5-1.2,1.6-2.2
		c0.1-1.5-1.4-2.4-2.6-2.9C172.8,274.6,172.4,275.2,172.7,275.3L172.7,275.3z"/>
	<path class="st2" d="M114.6,273.6c-1,0.3-1.1,1.6-0.1,1.2c1-0.5,1.7-0.6,1.7-0.6c-1.7,0.6-0.9,1.7-0.6,1.4c0.3-0.4,2-0.7,2-0.7
		c-1.4,0.8-1,1.4,0,1s2-0.6,2-0.6l-0.8,0.6c-0.7,0.5,0.1,1.5,0.8,0.8c0.7-0.7,3.1-1.5,3.1-1.5c-2.1,1-2.2,1.8-1.1,3
		c0.8,0.9,3.2,0.6,4.9-1.2c0.1,0.2,0.1,0.4,0.2,0.5c-2.4,2-3.5,2.6-5,2c-0.2-0.1-0.5-0.2-0.7-0.4c0,0-1.3,0.5-2.4-0.4
		c-0.1-0.1-0.2-0.2-0.3-0.3c0,0-1.4,0.7-2.1-0.7c0,0-1.2,0.2-1.6-1c0,0-1.2,0.3-1.6-0.8C112.8,274.8,113.7,273.9,114.6,273.6z"/>
	<path class="st1" d="M128.2,276.6c-1.1,1.4-3.1,3.1-4.7,3.4c-0.5,0.1-1.2,0.1-1.7-0.1c-0.9-0.5-1,0-1.9-0.3c-0.1,0-1.5-0.8-1.3-0.8
		c-0.5,0.2-0.9,0.1-1.4,0c0,0-0.8-0.7-0.7-0.8c-0.3,0-0.9,0-1.1-0.3c-0.3-0.3-0.5-0.7-0.8-0.7c-0.5,0-0.9-0.2-1.2-0.5
		c-1.1-1.3-0.1-2.6,1.2-3.2c0.3-0.1,0.6,0.5,0.4,0.6c-1,0.5-1.7,2.6-0.2,2.4c0.1,0,0.3,0.1,0.3,0.2c0.4,0.6,0.8,0.8,1.3,0.8
		c0.1,0,0.2,0.1,0.3,0.2c0.5,0.7,1.1,0.8,1.7,0.5c0.1,0,0.2,0,0.3,0.1c1.9,2.1,1.5,0,2.5,0.6c1.5,0.9,2.5,0.5,3.9-0.4
		c1-0.7,1.9-1.4,2.5-2.3"/>
	<path class="st1" d="M121.3,279.4c-1.2,0.5-2.5-0.1-3.2-1.2c-0.8-1.4,0.4-2.8,1.6-3.4c0.3-0.1,0.6,0.5,0.4,0.6
		c-0.9,0.4-1.9,1.2-1.7,2.3c0.2,1.1,1.7,1.4,2.5,1C121.2,278.7,121.5,279.3,121.3,279.4L121.3,279.4z"/>
	<path class="st1" d="M118.6,278.7c-0.8,0.4-1.8,0.2-2.2-0.6c-0.9-1.4-0.2-3,1.3-3.6c0.3-0.1,0.6,0.5,0.4,0.6
		c-1.1,0.4-2,1.4-1.4,2.6c0.3,0.6,1.1,0.6,1.6,0.4C118.5,277.9,118.9,278.5,118.6,278.7L118.6,278.7z"/>
	<path class="st1" d="M116.5,277.9c-1.2,0.2-2-0.8-2.1-1.9c-0.1-1.2,0.9-2.1,2.1-2.3c0.3,0,0.6,0.6,0.2,0.6c-0.6,0.1-1.3,0.5-1.6,1
		c-0.6,0.9,0.2,2,1.2,1.9C116.5,277.2,116.8,277.9,116.5,277.9L116.5,277.9z"/>
	<path class="st1" d="M123.1,275.3c-1,0.4-2.1,0.9-2.4,2c-0.2,0.8,0.3,1.6,1.1,1.9c0.3,0.1,0.4,0.7,0,0.6c-0.9-0.4-1.5-1.2-1.6-2.2
		c-0.1-1.5,1.4-2.4,2.6-2.9C123,274.6,123.4,275.2,123.1,275.3L123.1,275.3z"/>
</g>
<g id="knee">
	<path class="st2" d="M128,208.9c0,0,2,4.8,5.4,5c1.8,0.1,4.3-1.6,6.3-4.8c0,0,0.7-2.8,0.2,3.5c-0.2,2.8-3.8,2.4-6.5,2.3
		C129.8,214.6,127,213.6,128,208.9z"/>
	<path class="st1" d="M130.2,211.5c-1.4-1.4-2.1-3.5-2.5-5.4c0-0.1-0.5,0-0.5,0.1c0.3,1.9,1.1,4,2.5,5.4
		C129.8,211.8,130.3,211.6,130.2,211.5L130.2,211.5z"/>
	<path class="st1" d="M139.4,210.4c0.6-1.9,1.3-3.7,1.8-5.6c0.1-0.2-0.4-0.2-0.5,0c-0.4,1.9-1.1,3.7-1.7,5.5
		C138.9,210.6,139.3,210.6,139.4,210.4L139.4,210.4z"/>
	<path class="st2" d="M155.7,208.9c0,0,2.1,4.8,5.6,5c1.8,0.1,4.5-1.6,6.6-4.8c0,0,0.7-2.8,0.2,3.5c-0.2,2.8-3.9,2.4-6.8,2.3
		C157.6,214.6,154.7,213.6,155.7,208.9z"/>
	<path class="st1" d="M165.9,211.6c1.4-1.4,2.2-3.5,2.5-5.4c0-0.2-0.4-0.1-0.5,0c-0.3,1.9-1.1,4-2.5,5.4
		C165.3,211.7,165.8,211.7,165.9,211.6L165.9,211.6z"/>
	<path class="st1" d="M156.6,210.3c-0.6-1.8-1.3-3.7-1.8-5.6c-0.1-0.2-0.5-0.1-0.5,0.1c0.4,1.9,1.2,3.7,1.8,5.6
		C156.3,210.7,156.7,210.6,156.6,210.3L156.6,210.3z"/>
</g>
<g id="hair2">
	<g>
		<g>
			<g>
				<path class="st12" d="M164.3,39c0,0-3.9-6.6-15.6-6.5c-11.7,0.1-2.6,1.8-2.6,1.8s-11.1-0.2-17.5,6.6c-2.4,2.5,1.7,1.4,1.7,1.4
					s-6.7,5.2-8.4,13.8c-0.4,2.1,0.7,0.8,1.4,0c0,0-0.9,5.5-0.3,8.6c0.6,3,1.3,0.6,1.3,0.6s0.8,8.3,10,15.3s11.6,14.2,24.9,4.3
					c2.2-1.7,7.8-5.2,9.5-9c0,0-0.6,3.2,2.2,0s3.7-7.5,3.8-8.7c0,0,0.3,3.7,1.3,0.5s0.6-10.2,0.2-11.2c0,0,1.8,3.7,1.7,0.1
					c-0.1-3.7-2.8-9-4.4-10.6c0,0,3.3,2.5,1.8-0.1c-1.5-2.7-4.5-5.5-7.4-5.1c0,0,1.9-0.3,2.1-1c0.2-0.7-3.4-0.5-4,0.1
					c0,0,0.4-1.5-1.2-3.1C163.3,35.4,164.3,39,164.3,39z"/>
				<path class="st1" d="M164.6,38.9c-3.6-5.9-12.1-6.7-18.2-6.5c-0.1,0-5.1,0.3-3.5,1.2c0.6,0.4,1.5,0.5,2.2,0.7
					c0.3,0.1,0.6,0.1,0.8,0.2c0.3,0.1,0.5-0.3,0-0.3c-3.2,0-6.5,0.6-9.4,1.7c-2.2,0.8-4.2,1.8-6.1,3.2c-0.7,0.5-3.2,2.2-2.7,3.4
					c0.3,0.6,1.5,0.3,2,0.2c0.7-0.1,0.3-0.3,0.4-0.4c-0.3,0.2-0.6,0.5-0.9,0.8c-3,2.8-5.5,6.4-6.7,10.3c-0.2,0.5-1.5,3.8-0.6,4.1
					c0.6,0.2,1.4-0.9,1.7-1.2c-0.2,0-0.3,0-0.5,0c-0.5,3-0.8,6.3-0.1,9.3c0.4,1.5,1.4,0.7,1.7-0.3c-0.2,0-0.4,0.1-0.5,0.1
					c0.4,3.6,2.4,7.2,4.6,10c2.1,2.8,4.8,4.8,7.5,7c2.2,1.8,4.2,3.8,6.5,5.5c3.9,2.8,7.9,2.4,12,0.3c2.9-1.5,5.6-3.6,8.2-5.6
					c2.4-1.8,4.8-3.9,6.2-6.6c-0.2,0-0.4,0-0.5,0c-0.2,1.4,0.4,2,1.6,1.1c2.8-2,4.6-6.6,4.9-9.9c-0.2,0-0.4,0.1-0.5,0.1
					c0.2,1.8,1.2,2.8,1.8,0.4c0.9-3.3,1.2-7.9,0.2-11.2c-0.2,0-0.4,0.1-0.5,0.1c0.2,0.5,1.9,3,2.2,1.1c0.5-3.9-1.7-8.9-4.4-11.8
					c-0.2,0.1-0.3,0.2-0.5,0.3c0.6,0.5,1.5,1.2,2.3,1.1c1.2-0.2-0.5-2.3-0.7-2.6c-1.2-1.7-3.3-3.8-5.6-4c-1.1-0.1-1.7,0.6-0.1,0
					c0.5-0.2,0.8-0.4,1.1-0.8c0.5-0.7-1.7-0.7-1.9-0.7c-0.8,0-1.5,0.2-2.3,0.5c-0.1,0,0.2,0.4,0.2,0s-0.1-0.8-0.2-1.2
					c-0.2-0.6-1.3-2.7-2.3-2c-0.7,0.5-0.1,2.1,0.1,2.6C164.1,39.3,164.7,39.2,164.6,38.9c-0.1-0.4-0.2-0.9-0.3-1.4
					c-0.3-1.8,1.4,1,1.4,1.1c0.2,0.4,0.2,0.9,0.1,1.4c0,0.2,0.4,0.2,0.5,0.1c0.6-0.4,1.4-0.4,2.1-0.5c1.7-0.1,0.4,1-0.4,1.1
					c-0.3,0-0.4,0.4-0.1,0.4c3-0.2,5.3,2.1,6.8,4.4c1.4,2.1-0.1,1.1-1,0.4c-0.1-0.1-0.6,0.1-0.5,0.3c1.8,1.9,2.9,4.5,3.7,6.9
					c0.5,1.4,0.7,2.8,0.7,4.2c0,1.3-1-0.6-1.1-0.8s-0.6-0.1-0.5,0.1c0.6,2.1,0.4,4.6,0.4,6.8c0,1.3-0.2,2.6-0.5,3.9
					c-0.5,2-0.8,0.8-0.9-0.2c0-0.2-0.5-0.1-0.5,0.1c-0.2,2-0.9,3.9-1.8,5.7c-0.6,1.3-1.5,2.5-2.5,3.6c-1.3,1.5-1.2,0.1-1.1-0.6
					c0-0.3-0.5-0.2-0.5,0c-1.5,2.8-4,4.9-6.5,6.8c-2.4,1.8-4.9,3.7-7.6,5.2c-2.5,1.4-5.2,2.2-8,1.4c-2-0.5-3.7-1.9-5.3-3.2
					c-6.5-5.5-15.6-11.6-16.5-20.9c0-0.3-0.5-0.1-0.5,0.1c-0.4,1.1-0.8-0.8-0.8-1.2c-0.2-1.2-0.1-2.4-0.1-3.6
					c0.1-1.5,0.2-2.9,0.5-4.4c0-0.3-0.4-0.2-0.5,0c-0.8,0.9-0.9,0.3-0.7-0.7c0.2-1.1,0.7-2.2,1.1-3.3c0.8-1.9,1.8-3.7,3-5.3
					c1.1-1.6,2.5-3.1,4-4.3c0.2-0.2,0-0.3-0.2-0.3c-0.4,0.1-0.7,0.1-1.1,0.2c-2.4,0.3,1.2-2.8,1.6-3.1c2-1.6,4.5-2.7,7-3.5
					c2.6-0.8,5.6-1.3,8.3-1.3c0.2,0,0.6-0.3,0.2-0.4c-0.9-0.2-1.8-0.4-2.7-0.7c-1.1-0.4,1.8-0.6,2.1-0.6c2.5-0.2,4.9-0.1,7.4,0.2
					c3.9,0.6,8.8,2.5,11,6.1C164.2,39.4,164.7,39.2,164.6,38.9z"/>
			</g>
			<path class="st12" d="M173.9,64.7c0,0-0.2,2.8-1.7,2.9c0,0-1.1,4.2-1.9,6c-0.9,1.8,0.6,2.1,2.4-1.3
				C174.4,68.8,173.9,64.7,173.9,64.7z"/>
			<path class="st12" d="M176,57.8c0,0,0.6,6.2,0,8.7s-0.6-1.8-0.6-1.8S176.4,60.6,176,57.8z"/>
			<path class="st12" d="M125.1,64c0,0-0.9,5.1,3.4,10.1c0.5,0.6,1.9,1.3,0.4-1.3C127.2,70.2,125.5,69,125.1,64z"/>
			<path class="st1" d="M164.6,38.9c-3.6-5.9-12.1-6.7-18.2-6.5c-0.1,0-5.1,0.3-3.5,1.2c0.6,0.4,1.5,0.5,2.2,0.7
				c0.3,0.1,0.6,0.1,0.8,0.2c0.3,0.1,0.5-0.3,0-0.3c-3.2,0-6.5,0.6-9.4,1.7c-2.2,0.8-4.2,1.8-6.1,3.2c-0.7,0.5-3.2,2.2-2.7,3.4
				c0.3,0.6,1.5,0.3,2,0.2c0.7-0.1,0.3-0.3,0.4-0.4c-0.3,0.2-0.6,0.5-0.9,0.8c-3,2.8-5.5,6.4-6.7,10.3c-0.2,0.5-1.5,3.8-0.6,4.1
				c0.6,0.2,1.4-0.9,1.7-1.2c-0.2,0-0.3,0-0.5,0c-0.5,3-0.8,6.3-0.1,9.3c0.4,1.5,1.4,0.7,1.7-0.3c-0.2,0-0.4,0.1-0.5,0.1
				c0.4,3.6,2.4,7.2,4.6,10c2.1,2.8,4.8,4.8,7.5,7c2.2,1.8,4.2,3.8,6.5,5.5c3.9,2.8,7.9,2.4,12,0.3c2.9-1.5,5.6-3.6,8.2-5.6
				c2.4-1.8,4.8-3.9,6.2-6.6c-0.2,0-0.4,0-0.5,0c-0.2,1.4,0.4,2,1.6,1.1c2.8-2,4.6-6.6,4.9-9.9c-0.2,0-0.4,0.1-0.5,0.1
				c0.2,1.8,1.2,2.8,1.8,0.4c0.9-3.3,1.2-7.9,0.2-11.2c-0.2,0-0.4,0.1-0.5,0.1c0.2,0.5,1.9,3,2.2,1.1c0.5-3.9-1.7-8.9-4.4-11.8
				c-0.2,0.1-0.3,0.2-0.5,0.3c0.6,0.5,1.5,1.2,2.3,1.1c1.2-0.2-0.5-2.3-0.7-2.6c-1.2-1.7-3.3-3.8-5.6-4c-1.1-0.1-1.7,0.6-0.1,0
				c0.5-0.2,0.8-0.4,1.1-0.8c0.5-0.7-1.7-0.7-1.9-0.7c-0.8,0-1.5,0.2-2.3,0.5c-0.1,0,0.2,0.4,0.2,0s-0.1-0.8-0.2-1.2
				c-0.2-0.6-1.3-2.7-2.3-2c-0.7,0.5-0.1,2.1,0.1,2.6C164.1,39.3,164.7,39.2,164.6,38.9c-0.1-0.4-0.2-0.9-0.3-1.4
				c-0.3-1.8,1.4,1,1.4,1.1c0.2,0.4,0.2,0.9,0.1,1.4c0,0.2,0.4,0.2,0.5,0.1c0.6-0.4,1.4-0.4,2.1-0.5c1.7-0.1,0.4,1-0.4,1.1
				c-0.3,0-0.4,0.4-0.1,0.4c3-0.2,5.3,2.1,6.8,4.4c1.4,2.1-0.1,1.1-1,0.4c-0.1-0.1-0.6,0.1-0.5,0.3c1.8,1.9,2.9,4.5,3.7,6.9
				c0.5,1.4,0.7,2.8,0.7,4.2c0,1.3-1-0.6-1.1-0.8s-0.6-0.1-0.5,0.1c0.6,2.1,0.4,4.6,0.4,6.8c0,1.3-0.2,2.6-0.5,3.9
				c-0.5,2-0.8,0.8-0.9-0.2c0-0.2-0.5-0.1-0.5,0.1c-0.2,2-0.9,3.9-1.8,5.7c-0.6,1.3-1.5,2.5-2.5,3.6c-1.3,1.5-1.2,0.1-1.1-0.6
				c0-0.3-0.5-0.2-0.5,0c-1.5,2.8-4,4.9-6.5,6.8c-2.4,1.8-4.9,3.7-7.6,5.2c-2.5,1.4-5.2,2.2-8,1.4c-2-0.5-3.7-1.9-5.3-3.2
				c-6.5-5.5-15.6-11.6-16.5-20.9c0-0.3-0.5-0.1-0.5,0.1c-0.4,1.1-0.8-0.8-0.8-1.2c-0.2-1.2-0.1-2.4-0.1-3.6
				c0.1-1.5,0.2-2.9,0.5-4.4c0-0.3-0.4-0.2-0.5,0c-0.8,0.9-0.9,0.3-0.7-0.7c0.2-1.1,0.7-2.2,1.1-3.3c0.8-1.9,1.8-3.7,3-5.3
				c1.1-1.6,2.5-3.1,4-4.3c0.2-0.2,0-0.3-0.2-0.3c-0.4,0.1-0.7,0.1-1.1,0.2c-2.4,0.3,1.2-2.8,1.6-3.1c2-1.6,4.5-2.7,7-3.5
				c2.6-0.8,5.6-1.3,8.3-1.3c0.2,0,0.6-0.3,0.2-0.4c-0.9-0.2-1.8-0.4-2.7-0.7c-1.1-0.4,1.8-0.6,2.1-0.6c2.5-0.2,4.9-0.1,7.4,0.2
				c3.9,0.6,8.8,2.5,11,6.1C164.2,39.4,164.7,39.2,164.6,38.9z"/>
			<path class="st13" d="M157.1,35.2c-2.6-1.8-5.3-2.2-8.9-2.2c-3.6-0.1-2.5,0.8,1.4,1.1c2.3,0.2,6.8,1.7,7.5,2.1
				C157.8,36.6,159.1,36.6,157.1,35.2z"/>
			<path class="st13" d="M144.1,35.8c-2.7-0.4-8.3,0.7-10.4,2.4c-2.2,1.7,1.2,0,4.4-1s6.6-0.5,7.5-0.4
				C146.6,36.9,148.2,36.4,144.1,35.8z"/>
			<path class="st13" d="M128.9,45.3c-2.1,1.7-5.3,6.4-5.6,9.2c-0.3,2.7,0.8-0.9,2.3-3.9s4.2-5.1,4.9-5.7
				C131.3,44.2,132.1,42.8,128.9,45.3z"/>
			<path class="st13" d="M144.3,37.3c3.4-0.2,4.1,0.9,2.5,1.8c-1.6,0.9-0.9,1.9,1.2,2c2.1,0,1.8,0.9,1.3,1.6
				c-0.5,0.8,1.3,0.6,0.5,1.2c-0.8,0.6-5.8,3.6-4.4,1.9c1.4-1.7,2.5-2.6-0.4-2.2c-2.9,0.5-8.1,2.7-10.8,3s1.8-4.9,6-6.3
				C144.3,38.9,135.2,37.9,144.3,37.3z"/>
			<path class="st13" d="M153.2,45.4c-0.8,1.2-2,4.4-0.5,2.6c1.5-1.7,2.8-3.2,3.6-3.6C157.1,44,155.3,42.3,153.2,45.4z"/>
			<path class="st2" d="M146,76.4c0,0,0.3,1.7,1.8,1.5c1.5-0.1,1.9,0.1,0.9,0.9c-1,0.7-1.3-0.1-2.2-0.8
				C145.6,77.3,145.8,76.8,146,76.4z"/>
			<path class="st1" d="M146.8,72.3c0.3,1,0.5,2.4,0,3.4c-0.1,0.2,0.4,0.5,0.5,0.2c0.5-1.1,0.3-2.5,0-3.6
				C147.3,72.1,146.7,72,146.8,72.3L146.8,72.3z"/>
			<path class="st1" d="M148,76.2c-0.6-0.7-1.6-1.1-2.1-0.1c-0.6,1.1,0.6,2.2,1.4,2.6c0.1,0.1-0.1-0.4-0.2-0.5c-0.5-0.3-1-0.7-1-1.3
				c0-0.4,0.3-0.7,0.5-0.9c0.3-0.2,0.6-0.1,0.9,0c0.1,0.1,0.2,0.1,0.3,0.2c0,0,0.2,0.2,0.1,0.1C148.2,76.7,148.1,76.3,148,76.2
				L148,76.2z"/>
		</g>
		<path class="st14" d="M178,56.6c-0.1-3.7-2.8-9-4.4-10.6c0,0,3.3,2.5,1.8-0.1c-1.5-2.7-4.5-5.5-7.4-5.1c0,0,1.9-0.3,2.1-1
			c0.2-0.7-3.4-0.5-4,0.1c0,0,0.4-1.5-1.2-3.1c-1.6-1.5-0.5,2.1-0.5,2.1s-2.8-4.7-10.7-6.1c3,1,6.5,2.8,9.2,6.3c0,0-4.1-1.3-5.9,0.7
			c-1.2,1.3,0.6,1.2,2.7,1.6l0,0l0,0c0.5,0.1,0.9,0.2,1.4,0.4c0.7,0.4,0.4,1,0.4,1.6c0,0.9,1.4,1.6,2.2,0.9c1.9-1.4,5.4,2.3,5.9,1.3
			c0.1-0.4,0.5-0.7-0.6-1.9c-2.1-2.3,0.8-0.9,1.8,0.6s4.4,6.8,4.1,10c-0.2,3.2-1.9-1.4-1.9-1.4s1.9,5.3-0.1,7.6
			c-2,2.4-0.3-5.3-3.7-9.4c-3.4-4.2-1.8-0.6-1.1,0.7s1.5,8.6-2,10.5c0,0,1.4-2.9-1.5-6.3c-0.6-0.7-0.6,5.1-3.5,5.7
			c0,0-0.7,0-0.5-0.8c0.8-2.7,0.9-7.9,0.6-6.5c-0.3,1.3-2.3,4.2-3.6,5.7s-0.3-2.4,1.1-4.8c1.3-2.3,0.3-1.9-0.5-1.6
			c-4.3,1.6-6.3,6.2-6.8,7.6c-0.4,1.5-0.7,0.9-0.7,0.9c-1.5-2.7-0.2-6.7,0.2-9.4c0.3-2.7,0-5.2-1.7-0.6s-6.7,6.8-9.2,6.9
			c-2.6,0.2-0.6-1.5,1-2.5s2-3.8,2-3.8c-2.5,0.2-8.4,6.5-6.8,3c1.6-3.5,6.8-5.3,6.8-5.3c-7.3,0.1-11,5.6-12.2,7.6s-1.5,1.8-1.6,0.9
			c-0.6-8.7,5.3-10.9,5.3-10.9c-2.4,0.1-5.3,2.3-6.9,7.3s-0.4-0.6-1.7,1.2c-1.3,1.7-1.6,4.7-2.4,7.6c-0.3,0.9-0.5,0.9-0.7,0.4
			c0.6,2.4,1.2,0.2,1.2,0.2s0.8,8.3,10,15.3s11.6,14.2,24.9,4.3c2.2-1.7,7.8-5.2,9.5-9c0,0-0.6,3.2,2.2,0s3.7-7.5,3.8-8.7
			c0,0,0.3,3.7,1.3,0.5s0.6-10.2,0.2-11.2C176.2,56.6,178,60.3,178,56.6z"/>
	</g>
</g>
<g id="ear">
	<g>
		<g>
			<path class="st15" d="M133.7,70.2c0,0-1.1-3.7-3.5-2.8c-2.4,0.8-1.4,4.3,0,6.3s0.5,6.1,4,6.3C137.6,80.2,133.7,70.2,133.7,70.2z"
				/>
			<path class="st1" d="M134,70.2c-0.7-2.3-3.2-4.6-5.2-2.1c-1,1.3-0.1,3.6,0.5,4.9c0.5,1,1,1.9,1.3,3c0.2,1,0.4,1.9,0.9,2.8
				c1.2,2.4,4.2,2,4.4-0.6C136.1,75.5,135,72.6,134,70.2c-0.2-0.4-0.8-0.2-0.7,0.2c0.6,1.4,3.5,9.3,0.8,9.3c-2.8,0.1-2.8-4.7-4-6.6
				c-0.4-0.6-0.6-1.3-0.9-2c-0.4-1.2-0.3-4.6,2.4-3.2c0.8,0.4,1.3,1.6,1.6,2.4C133.5,70.8,134.2,70.6,134,70.2z"/>
		</g>
		<path class="st2" d="M130.5,69.2c1,0.5,1.9,1.9,2,0.7c0.1-0.8-0.2-1.6-0.5-2.1c1.1,0.8,1.6,2.5,1.6,2.5s3.9,10,0.5,9.8
			s-2.6-4.3-4-6.3c-0.6-0.9-1.2-2.2-1.3-3.3C129.1,69.4,129.8,68.8,130.5,69.2z"/>
		<path class="st1" d="M129.9,70c2.7-0.1,2.8,5.7,2.4,7.4c0,0.1,0.3,0,0.3-0.1c0.4-1.9,0.3-7.6-2.6-7.5
			C129.9,69.9,129.6,70,129.9,70L129.9,70z"/>
		<path class="st1" d="M130.8,72.4c0.6,0,1.1,0.6,1.3,1.1c0,0.1,0.4,0,0.3-0.1c-0.3-0.6-0.8-1.2-1.5-1.2
			C130.9,72.2,130.6,72.4,130.8,72.4L130.8,72.4z"/>
		<path class="st1" d="M134,70.2c-0.7-2.3-3.2-4.6-5.2-2.1c-1,1.3-0.1,3.6,0.5,4.9c0.5,1,1,1.9,1.3,3c0.2,1,0.4,1.9,0.9,2.8
			c1.2,2.4,4.2,2,4.4-0.6C136.1,75.5,135,72.6,134,70.2c-0.2-0.4-0.8-0.2-0.7,0.2c0.6,1.4,3.5,9.3,0.8,9.3c-2.8,0.1-2.8-4.7-4-6.6
			c-0.4-0.6-0.6-1.3-0.9-2c-0.4-1.2-0.3-4.6,2.4-3.2c0.8,0.4,1.3,1.6,1.6,2.4C133.5,70.8,134.2,70.6,134,70.2z"/>
	</g>
	<g>
		<g>
			<path class="st15" d="M164.4,70.2c0,0,1.1-3.7,3.5-2.8c2.4,0.8,1.4,4.3,0,6.3s-0.5,6.1-4,6.3C160.5,80.2,164.4,70.2,164.4,70.2z"
				/>
			<path class="st1" d="M164.7,70.2c0.2-0.7,0.6-1.4,1.1-2c1.3-1.7,2.8-0.2,3.1,1.1c0.2,0.8-0.1,1.8-0.4,2.6
				c-0.4,1.1-1.2,2.1-1.6,3.2c-0.4,1.2-0.5,2.5-1.1,3.7c-0.8,1.6-2.2,1.6-2.8,0.6c-0.2-0.3-0.2-0.8-0.2-1.2
				c-0.1-1.2,0.2-2.4,0.5-3.6C163.7,73,164.2,71.6,164.7,70.2c0.1-0.2-0.6-0.1-0.7,0.1c-1,2.5-1.9,5.3-1.9,8c0,2.5,3,2.4,4.2,0.7
				c1.1-1.7,1.1-3.9,2.2-5.7c1-1.5,1.7-3.9,0.5-5.4c-1.8-2.3-4.4,0.9-4.9,2.5C164,70.5,164.7,70.4,164.7,70.2z"/>
		</g>
		<path class="st2" d="M167.6,69.2c-1,0.5-1.9,1.9-2,0.7c-0.1-0.8,0.2-1.6,0.5-2.1c-1.1,0.8-1.6,2.5-1.6,2.5s-3.9,10-0.5,9.8
			s2.6-4.3,4-6.3c0.6-0.9,1.2-2.2,1.3-3.3C169,69.4,168.3,68.8,167.6,69.2z"/>
		<path class="st1" d="M168.2,69.8c-3-0.1-3.1,5.7-2.8,7.7c0,0.2,0.4,0.1,0.3-0.1c-0.3-1.7-0.2-7.4,2.3-7.3
			C168.3,70.1,168.5,69.8,168.2,69.8L168.2,69.8z"/>
		<path class="st1" d="M167.3,72.1c-0.7-0.1-1.4,0.6-1.7,1.2c-0.1,0.1,0,0.2,0.1,0.2s0.3-0.1,0.3-0.2c0.2-0.3,0.6-0.7,1-0.7
			c0.1,0,0.3-0.1,0.4-0.2C167.4,72.3,167.5,72.1,167.3,72.1L167.3,72.1z"/>
		<path class="st1" d="M164.7,70.2c0.2-0.7,0.6-1.4,1.1-2c1.3-1.7,2.8-0.2,3.1,1.1c0.2,0.8-0.1,1.8-0.4,2.6
			c-0.4,1.1-1.2,2.1-1.6,3.2c-0.4,1.2-0.5,2.5-1.1,3.7c-0.8,1.6-2.2,1.6-2.8,0.6c-0.2-0.3-0.2-0.8-0.2-1.2c-0.1-1.2,0.2-2.4,0.5-3.6
			C163.7,73,164.2,71.6,164.7,70.2c0.1-0.2-0.6-0.1-0.7,0.1c-1,2.5-1.9,5.3-1.9,8c0,2.5,3,2.4,4.2,0.7c1.1-1.7,1.1-3.9,2.2-5.7
			c1-1.5,1.7-3.9,0.5-5.4c-1.8-2.3-4.4,0.9-4.9,2.5C164,70.5,164.7,70.4,164.7,70.2z"/>
	</g>
</g>
<g id="face">
	<g>
		<path class="st0" d="M165.7,52h-33.5c0,0-2.6,5.8,0,13.5S131,78.6,137.7,85c5.9,5.7,9.1,6.2,11.3,6.2c2.1,0,5.4-0.5,11.3-6.2
			c6.7-6.4,2.8-11.8,5.5-19.5C168.3,57.8,165.7,52,165.7,52z"/>
		<path class="st1" d="M165.9,51.9c-11.2,0-22.3,0-33.5,0c-0.1,0-0.5,0-0.6,0.2c-1.3,2.9-1.3,6.3-1,9.3c0.3,2.8,1.5,5.4,1.9,8.2
			c0.3,2.3,0.2,4.7,0.4,7.1c0.5,5.3,4.3,9,8.4,12c2.3,1.7,4.9,2.7,7.7,2.6c2.6-0.1,5-1.3,7.1-2.8c3.9-2.7,7.4-6.2,8.3-11
			c0.4-2.1,0.3-4.2,0.4-6.3c0.1-3,1.2-5.6,1.8-8.4c0.7-3.5,0.8-7.6-0.7-10.9c-0.1-0.2-0.7,0.1-0.7,0.2c1.8,4.2,1.3,9.3,0,13.5
			c-1.6,4.9-0.4,10.2-2.2,15c-1.2,3-3.9,5.3-6.3,7.2c-2.1,1.7-4.6,3.2-7.4,3.3c-4.5,0.2-8.4-3.2-11.4-6.2c-4.5-4.2-4-9.2-4.5-14.9
			c-0.3-3-1.5-5.8-2-8.8c-0.4-2.7-0.2-5.5,0.6-8.1c0.1-0.4,0.2-0.8,0.4-1.2c-0.1,0.2-0.9,0.2-0.2,0.2c0.8,0,1.7,0,2.5,0
			c3.2,0,6.4,0,9.5,0c7.1,0,14.1,0,21.2,0C165.6,52.2,166.2,51.9,165.9,51.9z"/>
	</g>
	<polygon id="forhead" class="st10" points="132.8,53.4 165.1,53.4 165.5,67.7 133.2,67.7 	"/>
	<g>
		<path class="st2" d="M165.7,52h-33.5c0,0-2.6,5.8,0,13.5S131,78.6,137.7,85c5.9,5.7,9.1,6.2,11.3,6.2c2.1,0,5.4-0.5,11.3-6.2
			c6.7-6.4,2.8-11.8,5.5-19.5C168.3,57.8,165.7,52,165.7,52z M162.5,74c0,5.5-2.1,11.7-9.8,15.8c-1.9,1-6.6,1.1-10.1-1.4
			c-4.8-3.6-8.1-7.4-7.8-14.7c0.3-7.3-1.1-8.3-0.3-9.7c0.8-1.4,1.4-0.7,1.4-0.7s1.2,1,2.1-0.7c0.8-1.7,1.2-1.5,2.4-1.3
			s4.8,0.5,8.4-2c0,0,0.3,5.8,2.7,5.5c2.4-0.2,2.7-4.3,4.4-5.2c0,0-0.7,2.5,0.7,3.2s4.2-2.7,4.2-2.7s-0.4,3.3-0.6,3.9
			c-0.2,0.6,0.7,1.6,2.2,1.2C164.1,64.8,162.5,68.5,162.5,74z"/>
	</g>
	<path class="st1" d="M165.9,51.9c-11.2,0-22.3,0-33.5,0c-0.1,0-0.5,0-0.6,0.2c-1.3,2.9-1.3,6.3-1,9.3c0.3,2.8,1.5,5.4,1.9,8.2
		c0.3,2.3,0.2,4.7,0.4,7.1c0.5,5.3,4.3,9,8.4,12c2.3,1.7,4.9,2.7,7.7,2.6c2.6-0.1,5-1.3,7.1-2.8c3.9-2.7,7.4-6.2,8.3-11
		c0.4-2.1,0.3-4.2,0.4-6.3c0.1-3,1.2-5.6,1.8-8.4c0.7-3.5,0.8-7.6-0.7-10.9c-0.1-0.2-0.7,0.1-0.7,0.2c1.8,4.2,1.3,9.3,0,13.5
		c-1.6,4.9-0.4,10.2-2.2,15c-1.2,3-3.9,5.3-6.3,7.2c-2.1,1.7-4.6,3.2-7.4,3.3c-4.5,0.2-8.4-3.2-11.4-6.2c-4.5-4.2-4-9.2-4.5-14.9
		c-0.3-3-1.5-5.8-2-8.8c-0.4-2.7-0.2-5.5,0.6-8.1c0.1-0.4,0.2-0.8,0.4-1.2c-0.1,0.2-0.9,0.2-0.2,0.2c0.8,0,1.7,0,2.5,0
		c3.2,0,6.4,0,9.5,0c7.1,0,14.1,0,21.2,0C165.6,52.2,166.2,51.9,165.9,51.9z"/>
</g>
<g id="hair1">
	<g>
		<path class="st12" d="M169.8,52.6c0,0-2.7-3.9-17.5-5.3c-14.7-1.4-19.3,2.3-19.3,2.3s-3.6,2.1-4.2,8.4c-0.5,6.3,2.3,8.7,2.7,7.6
			s-0.7-6.5,5.6-11.3c-0.9,1-1.8,2.3-2.1,4.1c-0.8,4.7,1.3,5.5,1.4,4.7c0.1-0.8,0.8-4.8,5.8-6.6c-0.5,1.2-1.3,2.5-2.5,2.8
			c-2.1,0.6,7.1,2.6,10.7-4c0,0-1.6,4.2,0,7.8s0.9-3.7,7.6-7.8c0,0-2.3,5.1-1.4,6.3c0.9,1.2,4.5-5,4.5-5s-0.5,4.4-0.7,6.2
			c-0.2,1.7,4.1-1,4.7-4.5l0.1-0.1c0.4,1.1,0.8,3,0.4,4.9c-0.6,3.1-1.6,4.5,1.3,2.5C169.8,63.6,172.3,57.6,169.8,52.6z"/>
		<path class="st14" d="M166.2,62.5c0,0,1.4-2.9-1.5-6.3c-0.6-0.7-0.6,5.1-3.5,5.7c0,0-0.7,0-0.5-0.8c0.8-2.7,0.9-7.9,0.6-6.5
			c-0.3,1.3-2.3,4.2-3.6,5.7s-0.3-2.4,1.1-4.8c1.3-2.3,0.3-1.9-0.5-1.6c-4.3,1.6-6.3,6.2-6.8,7.6c-0.4,1.5-0.7,0.9-0.7,0.9
			c-1.5-2.7-0.2-6.7,0.2-9.4c0.3-2.7,0-5.2-1.7-0.6s-6.7,6.8-9.2,6.9c-0.3,0-0.6,0-0.7,0c0.8,0.7,7.9,1.2,11-4.3c0,0-1.6,4.2,0,7.8
			s0.9-3.7,7.6-7.8c0,0-2.3,5.1-1.4,6.3c0.9,1.2,4.5-5,4.5-5s-0.5,4.4-0.7,6.2c-0.2,1.7,4.1-1,4.7-4.5l0.1-0.1
			c0.4,1.1,0.8,3,0.4,4.9c-0.6,3.1-1.6,4.5,1.3,2.5c3-2,5.5-7.9,3-13c0,0-0.5-0.7-2.1-1.5c0.2,0.4,0.3,0.7,0.5,1
			C168.8,53.3,169.7,60.6,166.2,62.5z"/>
		<path class="st14" d="M136.3,56.3c1.6-3.5,6.8-5.3,6.8-5.3c-7.3,0.1-11,5.6-12.2,7.6s-1.5,1.8-1.6,0.9c-0.5-8.1,4.5-10.5,5.3-10.8
			c-1.2,0.5-1.7,0.9-1.7,0.9s-3.6,2.1-4.2,8.4c-0.5,6.3,2.3,8.7,2.7,7.6s-0.7-6.5,5.6-11.3c-0.9,1-1.8,2.3-2.1,4.1
			c-0.8,4.7,1.3,5.5,1.4,4.7c0.1-0.8,0.8-4.7,5.5-6.5c1-1.2,1.3-3.1,1.3-3.1C140.7,53.6,134.8,59.8,136.3,56.3z"/>
		<g>
			<path class="st1" d="M142.6,54c-0.3,1.5-0.9,2.9-1.8,4.2c0,0-2,1.2-1.7,1.4c1.5,1.2,4.9,0.3,6.5-0.2s2.9-1.5,4-2.7
				c0.3-0.3,0.5-0.6,0.7-1c-0.1,0.1-0.1-0.7-0.4,0c-0.3,1-0.4,2-0.5,3.1c0,0.6,0.5,6.9,2.2,5c0.8-0.9,1.1-2.3,1.7-3.4
				c0.6-1.1,1.4-2.1,2.3-3.1c0.6-0.6,1.3-1.2,2-1.7c0.3-0.2,0.1-0.2-0.2,0.3c-0.2,0.6-2.6,6.6-0.3,5.8c1-0.4,1.8-1.6,2.4-2.4
				c0.4-0.6,0.8-1.2,1.2-1.8c0.2-0.2,0.3-0.5,0.5-0.7c0.3-0.5-0.4-0.3-0.4,0c-0.1,1.1-1.8,7,0.3,6.5c2.2-0.6,3.8-3.1,4.3-5.2
				c0-0.1-0.5-0.1-0.5,0.1c-0.3,1.4-1,2.5-1.9,3.5c-0.2,0.2-2,1.9-2.3,1.1c-0.1-0.3,0.1-1.2,0.2-1.5c0.2-1.6,0.4-3.2,0.6-4.9
				c0-0.2-0.5,0-0.5,0.1c-1,1.6-2,3.3-3.4,4.6c-1.2,1.1-0.3-3-0.2-3.3c0.3-0.9,0.6-1.8,1-2.7c0.1-0.1-0.4,0-0.5,0
				c-3,2-4.7,4.6-6.2,7.8c-0.2,0.4-0.3,1-0.6,0.5c-0.5-0.8-0.7-1.8-0.9-2.7c-0.3-1.8,0-3.9,0.6-5.6c0-0.1-0.5,0-0.5,0.1
				c-1.4,2.4-3.6,3.9-6.4,4.4c-0.7,0.1-3.6,0.6-4.2-0.3c0.2,0.4,2.2-1.9,2.3-2c0.6-1,1-2.2,1.3-3.4C143.2,53.8,142.6,53.9,142.6,54
				L142.6,54z"/>
			<path class="st1" d="M132.8,49.6c-1.8,1.1-2.9,3.2-3.6,5.1c-1.1,3.1-1.5,8.5,1.1,11c0.7,0.7,1.4,0.1,1.5-0.7
				c0.4-4.7,2-8.1,5.9-11c0.2-0.2-0.3-0.1-0.4,0c-2.5,1.9-4.5,4.2-5.5,7.3c-0.3,0.9-0.4,1.9-0.5,2.8c0,0.6,0.2,2.1-0.7,1.2
				c-2.5-2.4-1.8-7.8-0.9-10.7c0.6-1.8,1.8-3.9,3.5-4.9C133.4,49.5,132.9,49.5,132.8,49.6L132.8,49.6z"/>
			<path class="st1" d="M164.5,57.2c1.2,2.7,0.9,5.4,0.2,8.1c-0.2,0.8-0.2,1.8,0.9,1.3c5.1-2.5,6.8-9,4.5-14
				c-0.1-0.2-0.6-0.1-0.5,0.1c2.1,4.7,0.7,10.7-3.9,13.4c-1,0.6-0.4-1.1-0.3-1.3c0.3-1.1,0.5-2.2,0.6-3.4c0.1-1.5-0.3-3.1-0.9-4.4
				C164.9,56.8,164.4,56.9,164.5,57.2L164.5,57.2z"/>
			<path class="st1" d="M140.3,51.9c-1.6,0.6-2.9,1.6-4,2.9c-1.6,1.8-2.6,5.5-1.4,7.8c0.2,0.4,1.4,1.5,1.7,0.5
				c1-3.2,2.3-5.3,5.7-6.6c0.4-0.1,0-0.4-0.2-0.3c-1.9,0.7-3.4,1.8-4.6,3.4c-0.2,0.2-1.6,3.3-1.4,3.4c-1-0.5-0.9-2.5-0.9-3.3
				c0-1.6,0.6-3.1,1.4-4.4c0.9-1.4,2.5-2.5,4.1-3.1C140.9,52,140.6,51.8,140.3,51.9L140.3,51.9z"/>
		</g>
		<path class="st13" d="M133.5,50c-3.4,2.8-4.3,7.6-2.8,6.1c1.6-1.5,2.3-4.9,8.1-7.4C143.9,46.5,138.4,46,133.5,50z"/>
		<path class="st13" d="M154,47.7c1.7-2.6,5.3-5.1,5.6-2.1c0.4,2.9,2-0.8,2.9,1.5s1.2,0.2,3,1.7c1.9,1.6,3.6,5.6,2.6,9.9
			c-0.5,2.2-0.4-3.3-2.3-5.7c-0.5-0.6-0.8,0.6-1,1c0,0,0,0-1,2.8s0-6.1-1.3-5.6c0,0-2,5-3.2,5.8c-1,0.7,2.7-7.2,0.1-8.3
			c0,0-3.1,0.2-6.1,7c-2.1,4.8-1.9,5.5-2.3,5.6C150.6,61.5,150.6,52.8,154,47.7z"/>
		<path class="st13" d="M147.1,47c-1.8,1.3-2.6,4.7-3.4,7.6c-0.8,2.9-2.2,3.3-1,3.1s2.9-2,3.9-4.9s2.3-4.5,4-5.6
			C152.2,46.1,150,44.8,147.1,47z"/>
		<path class="st13" d="M136.6,56.5c0,0,1.6-3.8,6.8-5l-0.2,1.3C143.2,52.8,138.8,53.3,136.6,56.5z"/>
	</g>
</g>
<g id="eye">
	<g>
		<path class="st2" d="M142.4,71.5c0,1.6-0.7,3.1-1.9,3.1s-1.9-1.3-1.9-2.9s0.7-2.9,1.9-2.9S142.4,69.9,142.4,71.5z"/>
		<g>
			<path class="st2" d="M143.6,70.4c-0.1,1.8-1.1,3.2-1.1,1.2c0-2.1-1.2-3.4-2.5-3.5s-2.2,2.7-2.2,2.7c-0.3-4.2,2.8-4,3.7-3.8
				C143.4,67.8,143.6,69.4,143.6,70.4z"/>
		</g>
		<path class="st16" d="M142.1,71.9c0,1.4-0.7,2.5-1.7,2.5s-1.7-1.1-1.7-2.5s0.7-2.5,1.7-2.5S142.1,70.5,142.1,71.9z"/>
		<path class="st17" d="M141.8,71.2c0,0.6-0.3,1-0.7,1s-0.7-0.5-0.7-1c0-0.6,0.3-1,0.7-1C141.5,70.1,141.8,70.6,141.8,71.2z"/>
		<path class="st1" d="M137.9,71c0-1.5,0.7-3.4,2.5-3.5c1.7-0.1,2.4,2.2,2.5,3.5c0,0.3,0.5,0.3,0.5,0c-0.1-1.8-0.9-3.8-2.9-4
			c-2-0.1-2.9,2.4-2.9,4C137.5,71.3,137.9,71.3,137.9,71L137.9,71z"/>
		<path class="st1" d="M139.7,71.4c0.2,0.1,0.2,1.3,0.7,1.5c0.6,0.1,0.8-0.1,0.9,0.2c0,0.3-0.7,1-1.3,0.7c-0.6-0.4-0.7-1.2-0.7-1.6
			C139.3,71.7,139.4,71.2,139.7,71.4z"/>
	</g>
	<g>
		<path class="st2" d="M157.5,71.6c0,1.6-0.7,2.9-1.9,2.9s-2-1.3-2-2.9s0.7-2.9,2-2.9C156.8,68.7,157.5,70,157.5,71.6z"/>
		<g>
			<path class="st2" d="M152.6,70.4c0.1,1.8,1.1,3.2,1.1,1.2c0-2.1,1.2-3.4,2.5-3.5s2.2,2.7,2.2,2.7c0.3-4.2-2.8-4-3.7-3.8
				C152.7,67.8,152.5,69.4,152.6,70.4z"/>
		</g>
		<path class="st16" d="M157.3,71.9c0,1.4-0.7,2.5-1.7,2.5c-0.9,0-1.7-1.1-1.7-2.5s0.7-2.5,1.7-2.5
			C156.5,69.4,157.3,70.5,157.3,71.9z"/>
		<path class="st17" d="M156.9,71.2c0,0.6-0.3,1-0.7,1s-0.7-0.5-0.7-1c0-0.6,0.3-1,0.7-1C156.6,70.1,156.9,70.6,156.9,71.2z"/>
		<path class="st1" d="M158.6,71c-0.1-1.8-0.9-3.8-2.9-4c-2-0.1-2.9,2.4-2.9,4c0,0.3,0.5,0.3,0.5,0c0-1.5,0.7-3.4,2.5-3.5
			c1.7-0.1,2.4,2.2,2.5,3.5C158.2,71.3,158.6,71.3,158.6,71L158.6,71z"/>
		<path class="st1" d="M154.8,71.4c0.2,0.1,0.2,1.3,0.7,1.5c0.6,0.1,0.8-0.1,0.9,0.2c0,0.3-0.7,1-1.3,0.7c-0.6-0.4-0.7-1.2-0.7-1.6
			C154.5,71.7,154.6,71.2,154.8,71.4z"/>
	</g>
</g>
<g id="eyebrow">
	<path class="st1" d="M136.4,66.5c1.7-2.4,5.8-2.2,7.7-0.4c0.6,0.5,0.7-0.2,0.3-0.6c-2.3-2.1-6.9-2.7-8.9,0.2
		C135.3,66.1,136.1,66.9,136.4,66.5L136.4,66.5z"/>
	<path class="st1" d="M160.6,66c-2.1-3-7-2.5-9.4-0.3c-0.4,0.4,0.7,0.5,1,0.3c1.8-1.7,5.6-2,7.2,0.3C159.8,66.6,160.9,66.4,160.6,66
		L160.6,66z"/>
</g>
<g id="nose">
	<g>
		<path class="st2" d="M146,76.4c0,0,0.3,1.7,1.8,1.5c1.5-0.1,1.9,0.1,0.9,0.9c-1,0.7-1.3-0.1-2.2-0.8
			C145.6,77.3,145.8,76.8,146,76.4z"/>
		<path class="st1" d="M146.8,72.3c0.3,1,0.5,2.4,0,3.4c-0.1,0.2,0.4,0.5,0.5,0.2c0.5-1.1,0.3-2.5,0-3.6
			C147.3,72.1,146.7,72,146.8,72.3L146.8,72.3z"/>
		<path class="st1" d="M148,76.2c-0.6-0.7-1.6-1.1-2.1-0.1c-0.6,1.1,0.6,2.2,1.4,2.6c0.1,0.1-0.1-0.4-0.2-0.5c-0.5-0.3-1-0.7-1-1.3
			c0-0.4,0.3-0.7,0.5-0.9c0.3-0.2,0.6-0.1,0.9,0c0.1,0.1,0.2,0.1,0.3,0.2c0,0,0.2,0.2,0.1,0.1C148.2,76.7,148.1,76.3,148,76.2
			L148,76.2z"/>
	</g>
</g>
<g id="cheek">
	<path class="st4" d="M156.9,75.7c-2,0.4-3.4,2.6-1,3.3c2.4,0.8,4.8-0.6,5.3-2C161.5,76.2,160.4,74.9,156.9,75.7z"/>
	<path class="st4" d="M140.3,75.4c2,0.4,3.4,2.6,1,3.3c-2.4,0.8-4.8-0.6-5.3-2C135.8,76,136.9,74.7,140.3,75.4z"/>
</g>
<g id="mouth">
	<g>
		<g>
			<path class="st1" d="M140.6,80.6c4.6,2.5,10.6,1.7,15.4,0c0.4-0.1,0.3-0.6-0.1-0.5c-4.5,1.6-10.3,2.4-14.7,0
				C140.9,80.1,140.3,80.4,140.6,80.6L140.6,80.6z"/>
		</g>
		<g>
			<path class="st18" d="M142,80.9c0.2,1.8,1.2,6,6.4,6c5.3,0,6.2-4.3,6.4-6.1C148.6,82.8,144,81.6,142,80.9z"/>
			<path class="st1" d="M141.7,80.9c0.4,3.6,2.9,6.2,6.7,6.1s6.3-2.4,6.7-6.3c0-0.2-0.2-0.2-0.3-0.1c-4.1,1.2-8.5,1.5-12.6,0.1
				c-0.2-0.1-0.6,0.2-0.3,0.3c2.1,0.8,4.3,1,6.6,1c1.3,0,2.6-0.2,3.9-0.4c0.2,0,2.2-0.4,2.2-0.5c0,0.4-0.1,0.8-0.2,1.3
				c-1,4-5.5,5.3-9,3.6c-1.9-0.9-2.7-3.2-3-5.1C142.2,80.6,141.7,80.7,141.7,80.9z"/>
		</g>
		<path class="st2" d="M146.1,87.7c0,0,2,1.2,4.7,0C150.8,87.7,148.4,89.7,146.1,87.7z"/>
		<path class="st19" d="M152.3,83.8c-0.8-0.1-5.6,0.2-7.6,0s-0.4,0.8,0.2,0.6c0.6-0.1,3.6-0.6,6.5,0.1
			C151.9,84.7,153.1,83.9,152.3,83.8z"/>
		<path class="st4" d="M149.2,87.3c-1.2,0.3-0.5,0.4,0,0.4C149.7,87.6,149.8,87.1,149.2,87.3z"/>
	</g>
</g>
<g id="tounge">
	<g>
		<g>
			<path class="st20" d="M144.2,85.5c1,0.8,2.3,1.4,4.3,1.4c1.7,0,3-0.5,3.9-1.1C148.9,83.5,145.6,84.7,144.2,85.5z"/>
			<path class="st1" d="M143.9,85.6c2.4,1.9,6.1,1.9,8.6,0.2c0.1-0.1,0.2-0.2,0-0.2c-2.7-1.6-5.7-1.7-8.5-0.3
				c-0.3,0.2,0,0.4,0.2,0.3c2.2-1.1,4.5-1.2,6.8-0.3c2,0.8-1.2,1.3-2,1.4c-1.6,0.2-3.3-0.3-4.6-1.3
				C144.2,85.2,143.7,85.4,143.9,85.6z"/>
		</g>
		<path class="st21" d="M149.5,85.2c0,0.3-0.8,0.5-1.7,0.5c-1,0-1.7-0.2-1.7-0.5s0.8-0.5,1.7-0.5S149.5,84.9,149.5,85.2z"/>
	</g>
</g>
<g id="Teeth">
	<g>
		<path class="st22" d="M148.3,83.5c1.5,0,4.2-0.4,4.8-0.9c0.3-0.3,0.5-0.9,0.6-1.5c-4.6,1.2-8.3,0.7-10.5,0.1
			c0.1,0.5,0.3,1.1,0.6,1.5C144.4,83.4,146.8,83.5,148.3,83.5z"/>
		<path class="st1" d="M148.2,83.7c1.4,0,2.9-0.2,4.3-0.6c1-0.3,1.2-1.1,1.4-2c0-0.2-0.2-0.2-0.3-0.2c-3.4,0.8-6.9,1-10.3,0.1
			c-0.1,0-0.5,0-0.4,0.3C143.5,83.9,146,83.7,148.2,83.7c0.3,0,0.4-0.4,0-0.4c-1.9,0-4.3,0.1-4.8-2.2c-0.1,0.1-0.3,0.2-0.4,0.3
			c2.1,0.5,4.2,0.7,6.3,0.6c0.7,0,1.4-0.1,2.1-0.2c0.5-0.1,2.1-0.9,1.6,0.4c-0.4,1.2-3.7,1.1-4.8,1.1
			C148,83.3,147.9,83.7,148.2,83.7z"/>
	</g>
	<path class="st17" d="M148.9,82.2c-1.6,0-4.7-0.2-4.4,0.2c0.3,0.5,1.1,0.8,4.1,0.8s3.7-0.6,3.4-0.9C151.8,82,149.9,82.2,148.9,82.2
		z"/>
</g>
</svg>
